<svg width="1439" height="131" viewBox="0 0 1439 131" fill="none" xmlns="http://www.w3.org/2000/svg">
<g clip-path="url(#clip0_1090_6579)">
<path d="M1423.01 28.1099H16.0464C77.1956 59.1099 305.894 121.11 731.492 121.11C1157.09 121.11 1369.84 59.1099 1423.01 28.1099Z" fill="white"/>
<path d="M794.777 121.197C1198.3 142.376 1625.27 22.3871 1787.06 -89C1776.62 -86.9292 1585.95 -51.4629 1575.11 -49.3711C1490.49 -1.07309 1237.3 105.386 794.777 121.197Z" fill="url(#paint0_linear_1090_6579)"/>
<path d="M644.223 121.197C240.701 142.376 -186.275 22.3871 -348.059 -89C-337.618 -86.9292 -146.95 -51.4629 -136.112 -49.3711C-51.4856 -1.07309 201.701 105.386 644.223 121.197Z" fill="url(#paint1_linear_1090_6579)"/>
</g>
<defs>
<linearGradient id="paint0_linear_1090_6579" x1="796.6" y1="131.324" x2="802.913" y2="-119.256" gradientUnits="userSpaceOnUse">
<stop stop-color="#F9C71C"/>
<stop offset="1" stop-color="#D3480D"/>
</linearGradient>
<linearGradient id="paint1_linear_1090_6579" x1="642.4" y1="131.324" x2="636.087" y2="-119.256" gradientUnits="userSpaceOnUse">
<stop stop-color="#F9C71C"/>
<stop offset="1" stop-color="#D3480D"/>
</linearGradient>
<clipPath id="clip0_1090_6579">
<rect width="1439" height="131" fill="white"/>
</clipPath>
</defs>
</svg>
