<svg width="44" height="44" viewBox="0 0 44 44" fill="none" xmlns="http://www.w3.org/2000/svg">
<rect width="44" height="44" rx="22" fill="#053385"/>
<path d="M22.0001 9.77783L10.6106 14.3792L22.0001 18.9807L33.3896 14.3792L22.0001 9.77783ZM9.77783 16.4012V29.5341L20.9815 34.2223V21.0899L9.77783 16.4012ZM34.2223 16.4012L23.0186 21.0899V34.2223L34.2223 29.5335V16.4012Z" fill="white"/>
<path d="M22.0001 9.77783L10.6106 14.3792L22.0001 18.9807L33.3896 14.3792L22.0001 9.77783ZM9.77783 16.4012V29.5341L20.9815 34.2223V21.0899L9.77783 16.4012ZM34.2223 16.4012L23.0186 21.0899V34.2223L34.2223 29.5335V16.4012Z" fill="#FDAB89" fill-opacity="0.4"/>
<path d="M22.0001 9.77783L10.6106 14.3792L22.0001 18.9807L33.3896 14.3792L22.0001 9.77783ZM9.77783 16.4012V29.5341L20.9815 34.2223V21.0899L9.77783 16.4012ZM34.2223 16.4012L23.0186 21.0899V34.2223L34.2223 29.5335V16.4012Z" fill="#FDB634" fill-opacity="0.3"/>
</svg>
