<svg width="24" height="17" viewBox="0 0 24 17" fill="none" xmlns="http://www.w3.org/2000/svg">
<path d="M21 0H3C2.20461 0.000837043 1.44206 0.317242 0.879557 0.879557C0.317229 1.44206 0.000814286 2.20461 0 3V13.5C0.000837043 14.2954 0.317242 15.0579 0.879557 15.6204C1.44206 16.1828 2.20461 16.4992 3 16.5H21C21.7954 16.4992 22.5579 16.1828 23.1204 15.6204C23.6828 15.0579 23.9992 14.2954 24 13.5V3C23.9992 2.20461 23.6828 1.44206 23.1204 0.879557C22.5579 0.317229 21.7954 0.000814286 21 0ZM20.6089 5.15829L13.4364 9.0705C12.5415 9.56117 11.4581 9.56117 10.5631 9.0705L3.39137 5.15829C3.21592 5.06353 3.08535 4.90282 3.02859 4.71163C2.97184 4.52045 2.99361 4.31453 3.0892 4.13957C3.18462 3.96446 3.34584 3.83455 3.53718 3.77863C3.72853 3.72272 3.93445 3.74532 4.10907 3.84141L11.2816 7.75363C11.729 7.99905 12.2705 7.99905 12.7179 7.75363L19.8913 3.84141C20.0661 3.74532 20.2718 3.72272 20.4632 3.77863C20.6547 3.83455 20.8159 3.96446 20.9113 4.13957C21.0068 4.31451 21.0285 4.52043 20.9718 4.71163C20.915 4.90281 20.7846 5.06352 20.609 5.15829H20.6089Z" fill="#053385"/>
</svg>
