<svg width="34" height="30" viewBox="0 0 34 30" fill="none" xmlns="http://www.w3.org/2000/svg">
<path d="M23.2367 24.4606L19.1894 21.2564C18.3124 20.5819 17.0308 20.7842 16.4574 21.7286L15.4118 23.4825C11.9041 21.1552 8.9023 18.1534 6.57506 14.612L8.32893 13.5664C9.27331 12.993 9.50941 11.7114 8.80112 10.8344L5.59695 6.78707C5.19221 6.24742 4.48392 5.97759 3.84309 6.11251C3.1348 6.24742 2.49396 6.5847 2.02177 7.05689C-0.609023 9.68768 1.92059 16.5345 7.72182 22.3357C13.4893 28.137 20.3361 30.6666 23.0007 28.0358C23.4391 27.5973 23.7427 26.9902 23.9113 26.3156C24.0462 25.6411 23.8101 24.8991 23.2367 24.4606Z" fill="white"/>
<path d="M23.2367 24.4606L19.1894 21.2564C18.3124 20.5819 17.0308 20.7842 16.4574 21.7286L15.4118 23.4825C11.9041 21.1552 8.9023 18.1534 6.57506 14.612L8.32893 13.5664C9.27331 12.993 9.50941 11.7114 8.80112 10.8344L5.59695 6.78707C5.19221 6.24742 4.48392 5.97759 3.84309 6.11251C3.1348 6.24742 2.49396 6.5847 2.02177 7.05689C-0.609023 9.68768 1.92059 16.5345 7.72182 22.3357C13.4893 28.137 20.3361 30.6666 23.0007 28.0358C23.4391 27.5973 23.7427 26.9902 23.9113 26.3156C24.0462 25.6411 23.8101 24.8991 23.2367 24.4606Z" fill="#FDAB89" fill-opacity="0.4"/>
<path d="M23.2367 24.4606L19.1894 21.2564C18.3124 20.5819 17.0308 20.7842 16.4574 21.7286L15.4118 23.4825C11.9041 21.1552 8.9023 18.1534 6.57506 14.612L8.32893 13.5664C9.27331 12.993 9.50941 11.7114 8.80112 10.8344L5.59695 6.78707C5.19221 6.24742 4.48392 5.97759 3.84309 6.11251C3.1348 6.24742 2.49396 6.5847 2.02177 7.05689C-0.609023 9.68768 1.92059 16.5345 7.72182 22.3357C13.4893 28.137 20.3361 30.6666 23.0007 28.0358C23.4391 27.5973 23.7427 26.9902 23.9113 26.3156C24.0462 25.6411 23.8101 24.8991 23.2367 24.4606Z" fill="#FDB634" fill-opacity="0.3"/>
<path d="M30.7581 0.546875H14.8385C13.5905 0.546875 12.5787 1.55872 12.5787 2.80666V11.205C12.5787 12.4529 13.5905 13.4647 14.8385 13.4647H15.9515V16.7364C15.9515 17.7145 17.132 18.2204 17.8403 17.5121L21.9214 13.431H30.7581C32.0061 13.431 33.0179 12.4192 33.0179 11.1712V2.80666C33.0179 1.55872 32.0061 0.546875 30.7581 0.546875ZM17.503 8.57416C16.6598 8.57416 15.9515 7.8996 15.9515 7.02267C15.9515 6.17947 16.6261 5.47118 17.503 5.47118C18.3462 5.47118 19.0545 6.14574 19.0545 7.02267C19.0545 7.86587 18.3799 8.57416 17.503 8.57416ZM22.7983 8.57416C21.9551 8.57416 21.2468 7.8996 21.2468 7.02267C21.2468 6.17947 21.9214 5.47118 22.7983 5.47118C23.6415 5.47118 24.3498 6.14574 24.3498 7.02267C24.3498 7.86587 23.6415 8.57416 22.7983 8.57416ZM28.0599 8.57416C27.2167 8.57416 26.5084 7.8996 26.5084 7.02267C26.5084 6.17947 27.183 5.47118 28.0599 5.47118C28.9368 5.47118 29.6114 6.14574 29.6114 7.02267C29.6114 7.86587 28.9368 8.57416 28.0599 8.57416Z" fill="white"/>
<path d="M30.7581 0.546875H14.8385C13.5905 0.546875 12.5787 1.55872 12.5787 2.80666V11.205C12.5787 12.4529 13.5905 13.4647 14.8385 13.4647H15.9515V16.7364C15.9515 17.7145 17.132 18.2204 17.8403 17.5121L21.9214 13.431H30.7581C32.0061 13.431 33.0179 12.4192 33.0179 11.1712V2.80666C33.0179 1.55872 32.0061 0.546875 30.7581 0.546875ZM17.503 8.57416C16.6598 8.57416 15.9515 7.8996 15.9515 7.02267C15.9515 6.17947 16.6261 5.47118 17.503 5.47118C18.3462 5.47118 19.0545 6.14574 19.0545 7.02267C19.0545 7.86587 18.3799 8.57416 17.503 8.57416ZM22.7983 8.57416C21.9551 8.57416 21.2468 7.8996 21.2468 7.02267C21.2468 6.17947 21.9214 5.47118 22.7983 5.47118C23.6415 5.47118 24.3498 6.14574 24.3498 7.02267C24.3498 7.86587 23.6415 8.57416 22.7983 8.57416ZM28.0599 8.57416C27.2167 8.57416 26.5084 7.8996 26.5084 7.02267C26.5084 6.17947 27.183 5.47118 28.0599 5.47118C28.9368 5.47118 29.6114 6.14574 29.6114 7.02267C29.6114 7.86587 28.9368 8.57416 28.0599 8.57416Z" fill="#FDAB89" fill-opacity="0.4"/>
<path d="M30.7581 0.546875H14.8385C13.5905 0.546875 12.5787 1.55872 12.5787 2.80666V11.205C12.5787 12.4529 13.5905 13.4647 14.8385 13.4647H15.9515V16.7364C15.9515 17.7145 17.132 18.2204 17.8403 17.5121L21.9214 13.431H30.7581C32.0061 13.431 33.0179 12.4192 33.0179 11.1712V2.80666C33.0179 1.55872 32.0061 0.546875 30.7581 0.546875ZM17.503 8.57416C16.6598 8.57416 15.9515 7.8996 15.9515 7.02267C15.9515 6.17947 16.6261 5.47118 17.503 5.47118C18.3462 5.47118 19.0545 6.14574 19.0545 7.02267C19.0545 7.86587 18.3799 8.57416 17.503 8.57416ZM22.7983 8.57416C21.9551 8.57416 21.2468 7.8996 21.2468 7.02267C21.2468 6.17947 21.9214 5.47118 22.7983 5.47118C23.6415 5.47118 24.3498 6.14574 24.3498 7.02267C24.3498 7.86587 23.6415 8.57416 22.7983 8.57416ZM28.0599 8.57416C27.2167 8.57416 26.5084 7.8996 26.5084 7.02267C26.5084 6.17947 27.183 5.47118 28.0599 5.47118C28.9368 5.47118 29.6114 6.14574 29.6114 7.02267C29.6114 7.86587 28.9368 8.57416 28.0599 8.57416Z" fill="#FDB634" fill-opacity="0.3"/>
</svg>
