<svg width="24" height="24" viewBox="0 0 24 24" fill="none" xmlns="http://www.w3.org/2000/svg">
<path d="M21.743 12.3311L12.743 2.33115C12.364 1.90915 11.636 1.90915 11.257 2.33115L2.25698 12.3311C2.12744 12.4747 2.04241 12.6529 2.01223 12.8439C1.98205 13.0349 2.00802 13.2306 2.08698 13.4071C2.24698 13.7681 2.60498 14.0001 2.99998 14.0001H4.99998V21.0001C4.99998 21.2654 5.10534 21.5197 5.29288 21.7073C5.48041 21.8948 5.73477 22.0001 5.99998 22.0001H8.99998C9.2652 22.0001 9.51955 21.8948 9.70709 21.7073C9.89463 21.5197 9.99998 21.2654 9.99998 21.0001V17.0001H14V21.0001C14 21.2654 14.1053 21.5197 14.2929 21.7073C14.4804 21.8948 14.7348 22.0001 15 22.0001H18C18.2652 22.0001 18.5196 21.8948 18.7071 21.7073C18.8946 21.5197 19 21.2654 19 21.0001V14.0001H21C21.1937 14.001 21.3834 13.9454 21.546 13.8403C21.7087 13.7352 21.8372 13.585 21.916 13.408C21.9947 13.2311 22.0203 13.0351 21.9896 12.8439C21.9589 12.6527 21.8732 12.4745 21.743 12.3311Z" fill="#053385"/>
</svg>
