<svg width="53" height="52" viewBox="0 0 53 52" fill="none" xmlns="http://www.w3.org/2000/svg">
<rect x="0.5" width="52" height="52" rx="26" fill="#053385"/>
<path d="M21.9969 46.7486C22.0927 46.7827 22.1908 46.8002 22.2874 46.8002C22.5901 46.8002 22.879 46.6345 23.0261 46.3508L34.6741 23.8868C34.8082 23.629 34.7974 23.3203 34.6466 23.0722C34.4955 22.8245 34.2258 22.6722 33.9354 22.6722H24.1729L28.0893 6.22428C28.1866 5.81571 27.9638 5.39897 27.57 5.25156C27.1763 5.10744 26.7347 5.27496 26.5416 5.64936L14.8936 28.1133C14.7595 28.3711 14.7703 28.6798 14.9211 28.9279C15.0715 29.176 15.3412 29.3283 15.6316 29.3283H25.3941L21.4777 45.7762C21.3804 46.1844 21.6036 46.6014 21.9969 46.7486Z" fill="white"/>
<path d="M21.9969 46.7486C22.0927 46.7827 22.1908 46.8002 22.2874 46.8002C22.5901 46.8002 22.879 46.6345 23.0261 46.3508L34.6741 23.8868C34.8082 23.629 34.7974 23.3203 34.6466 23.0722C34.4955 22.8245 34.2258 22.6722 33.9354 22.6722H24.1729L28.0893 6.22428C28.1866 5.81571 27.9638 5.39897 27.57 5.25156C27.1763 5.10744 26.7347 5.27496 26.5416 5.64936L14.8936 28.1133C14.7595 28.3711 14.7703 28.6798 14.9211 28.9279C15.0715 29.176 15.3412 29.3283 15.6316 29.3283H25.3941L21.4777 45.7762C21.3804 46.1844 21.6036 46.6014 21.9969 46.7486Z" fill="#FDAB89" fill-opacity="0.4"/>
<path d="M21.9969 46.7486C22.0927 46.7827 22.1908 46.8002 22.2874 46.8002C22.5901 46.8002 22.879 46.6345 23.0261 46.3508L34.6741 23.8868C34.8082 23.629 34.7974 23.3203 34.6466 23.0722C34.4955 22.8245 34.2258 22.6722 33.9354 22.6722H24.1729L28.0893 6.22428C28.1866 5.81571 27.9638 5.39897 27.57 5.25156C27.1763 5.10744 26.7347 5.27496 26.5416 5.64936L14.8936 28.1133C14.7595 28.3711 14.7703 28.6798 14.9211 28.9279C15.0715 29.176 15.3412 29.3283 15.6316 29.3283H25.3941L21.4777 45.7762C21.3804 46.1844 21.6036 46.6014 21.9969 46.7486Z" fill="#FDB634" fill-opacity="0.3"/>
</svg>
