<svg width="34" height="34" viewBox="0 0 34 34" fill="none" xmlns="http://www.w3.org/2000/svg">
<path d="M21.4863 17.0015L32.6983 5.78631C33.0012 5.49373 33.2429 5.14374 33.4091 4.75678C33.5753 4.36982 33.6628 3.95363 33.6665 3.53249C33.6701 3.11135 33.5899 2.6937 33.4304 2.30391C33.2709 1.91412 33.0354 1.55999 32.7376 1.26219C32.4398 0.964393 32.0857 0.728883 31.6959 0.569407C31.3061 0.409931 30.8885 0.329682 30.4673 0.333341C30.0462 0.337001 29.63 0.424496 29.243 0.590723C28.8561 0.756949 28.5061 0.998576 28.2135 1.30151L16.9983 12.5135L5.78634 1.30151C5.49376 0.998576 5.14378 0.756949 4.75681 0.590723C4.36985 0.424496 3.95366 0.337001 3.53252 0.333341C3.11139 0.329682 2.69374 0.409931 2.30394 0.569407C1.91415 0.728883 1.56002 0.964393 1.26222 1.26219C0.964423 1.55999 0.728914 1.91412 0.569438 2.30391C0.409961 2.6937 0.329712 3.11135 0.333372 3.53249C0.337031 3.95363 0.424527 4.36982 0.590753 4.75678C0.756979 5.14374 0.998606 5.49373 1.30154 5.78631L12.5135 16.9983L1.30154 28.2135C0.998606 28.5061 0.756979 28.856 0.590753 29.243C0.424527 29.63 0.337031 30.0461 0.333372 30.4673C0.329712 30.8884 0.409961 31.3061 0.569438 31.6959C0.728914 32.0857 0.964423 32.4398 1.26222 32.7376C1.56002 33.0354 1.91415 33.2709 2.30394 33.4304C2.69374 33.5898 3.11139 33.6701 3.53252 33.6664C3.95366 33.6628 4.36985 33.5753 4.75681 33.4091C5.14378 33.2428 5.49376 33.0012 5.78634 32.6983L16.9983 21.4863L28.2135 32.6983C28.5061 33.0012 28.8561 33.2428 29.243 33.4091C29.63 33.5753 30.0462 33.6628 30.4673 33.6664C30.8885 33.6701 31.3061 33.5898 31.6959 33.4304C32.0857 33.2709 32.4398 33.0354 32.7376 32.7376C33.0354 32.4398 33.2709 32.0857 33.4304 31.6959C33.5899 31.3061 33.6701 30.8884 33.6665 30.4673C33.6628 30.0461 33.5753 29.63 33.4091 29.243C33.2429 28.856 33.0012 28.5061 32.6983 28.2135L21.4863 16.9983V17.0015Z" fill="#053385"/>
</svg>
