<svg width="35" height="42" viewBox="0 0 35 42" fill="none" xmlns="http://www.w3.org/2000/svg">
<g filter="url(#filter0_d_1208_614)">
<path fill-rule="evenodd" clip-rule="evenodd" d="M25.0709 33.7137C27.9721 33.7137 30.3238 31.362 30.3238 28.4605V5.53802C30.3238 2.63684 27.972 0.285156 25.0709 0.285156H9.78895C6.88778 0.285156 4.53577 2.63693 4.53577 5.53802V28.4605C4.53577 31.362 6.88778 33.7137 9.78895 33.7137H25.0709ZM11.6989 7.92589C10.9077 7.92589 10.2662 8.56738 10.2662 9.35855C10.2662 10.1497 10.9077 10.7912 11.6989 10.7912H23.1602C23.9513 10.7912 24.5928 10.1497 24.5928 9.35855C24.5928 8.56738 23.9513 7.92589 23.1602 7.92589H11.6989ZM10.2662 16.9991C10.2662 16.208 10.9077 15.5665 11.6989 15.5665H23.1602C23.9513 15.5665 24.5928 16.208 24.5928 16.9991C24.5928 17.7903 23.9513 18.4318 23.1602 18.4318H11.6989C10.9077 18.4318 10.2662 17.7903 10.2662 16.9991ZM11.6989 23.2075C10.9077 23.2075 10.2662 23.849 10.2662 24.6402C10.2662 25.4313 10.9077 26.0728 11.6989 26.0728H18.3847C19.1759 26.0728 19.8174 25.4313 19.8174 24.6402C19.8174 23.849 19.1759 23.2075 18.3847 23.2075H11.6989Z" fill="white"/>
<path fill-rule="evenodd" clip-rule="evenodd" d="M25.0709 33.7137C27.9721 33.7137 30.3238 31.362 30.3238 28.4605V5.53802C30.3238 2.63684 27.972 0.285156 25.0709 0.285156H9.78895C6.88778 0.285156 4.53577 2.63693 4.53577 5.53802V28.4605C4.53577 31.362 6.88778 33.7137 9.78895 33.7137H25.0709ZM11.6989 7.92589C10.9077 7.92589 10.2662 8.56738 10.2662 9.35855C10.2662 10.1497 10.9077 10.7912 11.6989 10.7912H23.1602C23.9513 10.7912 24.5928 10.1497 24.5928 9.35855C24.5928 8.56738 23.9513 7.92589 23.1602 7.92589H11.6989ZM10.2662 16.9991C10.2662 16.208 10.9077 15.5665 11.6989 15.5665H23.1602C23.9513 15.5665 24.5928 16.208 24.5928 16.9991C24.5928 17.7903 23.9513 18.4318 23.1602 18.4318H11.6989C10.9077 18.4318 10.2662 17.7903 10.2662 16.9991ZM11.6989 23.2075C10.9077 23.2075 10.2662 23.849 10.2662 24.6402C10.2662 25.4313 10.9077 26.0728 11.6989 26.0728H18.3847C19.1759 26.0728 19.8174 25.4313 19.8174 24.6402C19.8174 23.849 19.1759 23.2075 18.3847 23.2075H11.6989Z" fill="#FDAB89" fill-opacity="0.4"/>
<path fill-rule="evenodd" clip-rule="evenodd" d="M25.0709 33.7137C27.9721 33.7137 30.3238 31.362 30.3238 28.4605V5.53802C30.3238 2.63684 27.972 0.285156 25.0709 0.285156H9.78895C6.88778 0.285156 4.53577 2.63693 4.53577 5.53802V28.4605C4.53577 31.362 6.88778 33.7137 9.78895 33.7137H25.0709ZM11.6989 7.92589C10.9077 7.92589 10.2662 8.56738 10.2662 9.35855C10.2662 10.1497 10.9077 10.7912 11.6989 10.7912H23.1602C23.9513 10.7912 24.5928 10.1497 24.5928 9.35855C24.5928 8.56738 23.9513 7.92589 23.1602 7.92589H11.6989ZM10.2662 16.9991C10.2662 16.208 10.9077 15.5665 11.6989 15.5665H23.1602C23.9513 15.5665 24.5928 16.208 24.5928 16.9991C24.5928 17.7903 23.9513 18.4318 23.1602 18.4318H11.6989C10.9077 18.4318 10.2662 17.7903 10.2662 16.9991ZM11.6989 23.2075C10.9077 23.2075 10.2662 23.849 10.2662 24.6402C10.2662 25.4313 10.9077 26.0728 11.6989 26.0728H18.3847C19.1759 26.0728 19.8174 25.4313 19.8174 24.6402C19.8174 23.849 19.1759 23.2075 18.3847 23.2075H11.6989Z" fill="#FDB634" fill-opacity="0.3"/>
</g>
<defs>
<filter id="filter0_d_1208_614" x="0.535767" y="0.285156" width="33.788" height="41.4277" filterUnits="userSpaceOnUse" color-interpolation-filters="sRGB">
<feFlood flood-opacity="0" result="BackgroundImageFix"/>
<feColorMatrix in="SourceAlpha" type="matrix" values="0 0 0 0 0 0 0 0 0 0 0 0 0 0 0 0 0 0 127 0" result="hardAlpha"/>
<feOffset dy="4"/>
<feGaussianBlur stdDeviation="2"/>
<feComposite in2="hardAlpha" operator="out"/>
<feColorMatrix type="matrix" values="0 0 0 0 0 0 0 0 0 0 0 0 0 0 0 0 0 0 0.25 0"/>
<feBlend mode="normal" in2="BackgroundImageFix" result="effect1_dropShadow_1208_614"/>
<feBlend mode="normal" in="SourceGraphic" in2="effect1_dropShadow_1208_614" result="shape"/>
</filter>
</defs>
</svg>
