<svg width="28" height="21" viewBox="0 0 28 21" fill="none" xmlns="http://www.w3.org/2000/svg">
<rect x="0.25" y="1.1499" width="27.5" height="19.5" rx="1.75" fill="white" stroke="#F5F5F5" stroke-width="0.5"/>
<mask id="mask0_1200_1945" style="mask-type:alpha" maskUnits="userSpaceOnUse" x="0" y="0" width="28" height="21">
<rect x="0.25" y="1.1499" width="27.5" height="19.5" rx="1.75" fill="white" stroke="white" stroke-width="0.5"/>
</mask>
<g mask="url(#mask0_1200_1945)">
<path fill-rule="evenodd" clip-rule="evenodd" d="M0 20.8999H28V10.2332H12.4444L13.3333 10.8999L0 20.8999Z" fill="#DD1C34"/>
<path fill-rule="evenodd" clip-rule="evenodd" d="M28 10.2332H12.4444L0 0.899902H28V10.2332Z" fill="#0D4BC3"/>
<path fill-rule="evenodd" clip-rule="evenodd" d="M1.99998 4.89989C2.36817 4.89989 2.66665 4.60142 2.66665 4.23323C2.66665 3.86504 2.36817 3.56656 1.99998 3.56656C1.63179 3.56656 1.33331 3.86504 1.33331 4.23323C1.33331 4.60142 1.63179 4.89989 1.99998 4.89989ZM9.99998 11.5666C10.3682 11.5666 10.6666 11.2681 10.6666 10.8999C10.6666 10.5317 10.3682 10.2332 9.99998 10.2332C9.63179 10.2332 9.33331 10.5317 9.33331 10.8999C9.33331 11.2681 9.63179 11.5666 9.99998 11.5666ZM2.66665 17.5666C2.66665 17.9347 2.36817 18.2332 1.99998 18.2332C1.63179 18.2332 1.33331 17.9347 1.33331 17.5666C1.33331 17.1984 1.63179 16.8999 1.99998 16.8999C2.36817 16.8999 2.66665 17.1984 2.66665 17.5666ZM4.53205 12.2265L3.39103 13.9795L3.82377 11.9331C3.75413 11.8762 3.69035 11.8124 3.63348 11.7428L1.58705 12.1755L3.34002 11.0345C3.33559 10.9902 3.33331 10.9453 3.33331 10.8999C3.33331 10.8545 3.33559 10.8096 3.34002 10.7653L1.58705 9.62428L3.63348 10.057C3.69035 9.98738 3.75413 9.9236 3.82377 9.86672L3.39103 7.82029L4.53205 9.57327C4.57632 9.56883 4.62122 9.56656 4.66665 9.56656C4.71208 9.56656 4.75698 9.56883 4.80124 9.57327L5.94226 7.82029L5.50953 9.86672C5.57916 9.9236 5.64294 9.98738 5.69982 10.057L7.74624 9.62428L5.99327 10.7653C5.99771 10.8096 5.99998 10.8545 5.99998 10.8999C5.99998 10.9453 5.99771 10.9902 5.99327 11.0345L7.74624 12.1755L5.69982 11.7428C5.64294 11.8124 5.57916 11.8762 5.50953 11.9331L5.94226 13.9795L4.80124 12.2265C4.75698 12.231 4.71208 12.2332 4.66665 12.2332C4.62122 12.2332 4.57632 12.231 4.53205 12.2265Z" fill="#FDD64D"/>
</g>
</svg>
