<svg width="24" height="24" viewBox="0 0 24 24" fill="none" xmlns="http://www.w3.org/2000/svg">
<path d="M1.18954 7.97576C0.93369 7.14285 0.936887 6.2518 1.19896 5.42062C1.46103 4.58961 1.96938 3.85781 2.6566 3.32209C4.99674 1.46559 7.83139 0.338753 10.8075 0.0822196L11.0622 0.0592995C11.9741 -0.0197665 12.891 -0.0197665 13.8029 0.0592995L14.0703 0.0822196H14.0704C17.0413 0.340204 19.8711 1.46504 22.2086 3.31713C22.8965 3.85281 23.4055 4.58484 23.668 5.41652C23.9304 6.24803 23.9341 7.13962 23.6783 7.97326C23.6511 8.05819 23.6205 8.14312 23.5866 8.22805L23.4542 8.56687V8.56669C23.3181 8.91671 23.0681 9.21076 22.7448 9.40143C22.4214 9.59225 22.0433 9.66883 21.6711 9.61872L17.9829 9.13226C17.6096 9.0818 17.2675 8.89791 17.0192 8.61451C16.771 8.3313 16.6338 7.96776 16.6329 7.59111V5.43627C15.6209 4.70906 14.4308 4.26895 13.1891 4.1627H13.0592C12.6354 4.12628 12.2094 4.12628 11.7856 4.1627H11.6609C10.4191 4.26913 9.22924 4.70924 8.2172 5.43627V7.5886C8.21667 7.96545 8.07969 8.32914 7.83147 8.61255C7.58326 8.89597 7.24053 9.07968 6.86724 9.12958L3.19668 9.61872C2.82463 9.66883 2.44636 9.59225 2.12301 9.40143C1.79964 9.21078 1.54982 8.91674 1.41373 8.56669L1.28136 8.22538C1.24049 8.14383 1.20993 8.06068 1.18968 7.97575L1.18954 7.97576ZM7.8121 14.7512H7.81193C8.24901 14.7512 8.66813 14.5776 8.97729 14.2684C9.28627 13.9594 9.46002 13.5401 9.46002 13.1031C9.46002 12.6662 9.28625 12.2469 8.97729 11.9379C8.66813 11.6287 8.24899 11.4552 7.81193 11.4552C7.37486 11.4552 6.95572 11.6287 6.64656 11.9379C6.33759 12.2469 6.16402 12.6662 6.16402 13.1031C6.16402 13.5385 6.33619 13.9561 6.64302 14.2649C6.94986 14.5737 7.3665 14.7485 7.80183 14.7512H7.8121ZM12.4274 14.7512C12.8645 14.7512 13.2836 14.5776 13.5928 14.2684C13.9018 13.9594 14.0753 13.5401 14.0753 13.1031C14.0753 12.6662 13.9018 12.2469 13.5928 11.9379C13.2836 11.6287 12.8645 11.4552 12.4274 11.4552C11.9904 11.4552 11.5712 11.6287 11.2621 11.9379C10.9531 12.2469 10.7795 12.6662 10.7795 13.1031C10.7795 13.5401 10.9531 13.9594 11.2621 14.2684C11.5712 14.5776 11.9904 14.7512 12.4274 14.7512ZM17.0532 14.7512C17.4903 14.7512 17.9094 14.5776 18.2186 14.2684C18.5276 13.9594 18.7013 13.5401 18.7013 13.1031C18.7013 12.6662 18.5275 12.2469 18.2186 11.9379C17.9094 11.6287 17.4903 11.4552 17.0532 11.4552C16.6161 11.4552 16.197 11.6287 15.8879 11.9379C15.5789 12.2469 15.4053 12.6662 15.4053 13.1031C15.4053 13.5401 15.5789 13.9594 15.8879 14.2684C16.197 14.5776 16.6162 14.7512 17.0532 14.7512ZM12.4274 24C12.8645 24 13.2836 23.8264 13.5928 23.5173C13.9018 23.2083 14.0753 22.789 14.0753 22.3521C14.0753 21.915 13.9018 21.4957 13.5928 21.1867C13.2836 20.8776 12.8645 20.704 12.4274 20.704C11.9904 20.704 11.5712 20.8776 11.2621 21.1867C10.9531 21.4957 10.7795 21.915 10.7795 22.3521C10.7795 22.789 10.9531 23.2083 11.2621 23.5173C11.5712 23.8264 11.9904 24 12.4274 24ZM12.4274 19.3869C12.8645 19.3869 13.2836 19.2134 13.5928 18.9044C13.9018 18.5952 14.0753 18.1761 14.0753 17.739C14.0753 17.302 13.9018 16.8828 13.5928 16.5737C13.2836 16.2647 12.8645 16.0911 12.4274 16.0911C11.9904 16.0911 11.5712 16.2647 11.2621 16.5737C10.9531 16.8828 10.7795 17.302 10.7795 17.739C10.7795 18.1761 10.9531 18.5952 11.2621 18.9044C11.5712 19.2134 11.9904 19.3869 12.4274 19.3869ZM17.0532 19.3869C17.4903 19.3869 17.9094 19.2134 18.2186 18.9044C18.5276 18.5952 18.7013 18.1761 18.7013 17.739C18.7013 17.302 18.5275 16.8828 18.2186 16.5737C17.9094 16.2647 17.4903 16.0911 17.0532 16.0911C16.6161 16.0911 16.197 16.2647 15.8879 16.5737C15.5789 16.8828 15.4053 17.302 15.4053 17.739C15.4053 18.1761 15.5789 18.5952 15.8879 18.9044C16.197 19.2134 16.6162 19.3869 17.0532 19.3869ZM7.8021 19.3869C8.23918 19.3869 8.6583 19.2134 8.96746 18.9044C9.27644 18.5952 9.45001 18.1761 9.45001 17.739C9.45001 17.302 9.27642 16.8828 8.96746 16.5737C8.65831 16.2647 8.23916 16.0911 7.8021 16.0911C7.36502 16.0911 6.94589 16.2647 6.63674 16.5737C6.32776 16.8828 6.15401 17.302 6.15401 17.739C6.15401 18.1761 6.32777 18.5952 6.63674 18.9044C6.94589 19.2134 7.36504 19.3869 7.8021 19.3869Z" fill="#053385"/>
</svg>
