<svg width="18" height="36" viewBox="0 0 18 36" fill="none" xmlns="http://www.w3.org/2000/svg">
<path d="M6.68968 35.5563C6.77077 35.5853 6.85374 35.6 6.93545 35.6C7.1916 35.6 7.43611 35.4599 7.56056 35.2197L17.4166 16.2117C17.53 15.9936 17.5209 15.7325 17.3933 15.5225C17.2654 15.3129 17.0372 15.184 16.7915 15.184H8.53091L11.8448 1.26656C11.9271 0.920844 11.7386 0.568216 11.4054 0.443483C11.0723 0.321543 10.6986 0.463283 10.5352 0.780084L0.679182 19.7881C0.565721 20.0062 0.574837 20.2674 0.702439 20.4773C0.829722 20.6872 1.0579 20.8161 1.30367 20.8161H9.56421L6.25034 34.7336C6.168 35.079 6.35685 35.4318 6.68968 35.5563Z" fill="white"/>
<path d="M6.68968 35.5563C6.77077 35.5853 6.85374 35.6 6.93545 35.6C7.1916 35.6 7.43611 35.4599 7.56056 35.2197L17.4166 16.2117C17.53 15.9936 17.5209 15.7325 17.3933 15.5225C17.2654 15.3129 17.0372 15.184 16.7915 15.184H8.53091L11.8448 1.26656C11.9271 0.920844 11.7386 0.568216 11.4054 0.443483C11.0723 0.321543 10.6986 0.463283 10.5352 0.780084L0.679182 19.7881C0.565721 20.0062 0.574837 20.2674 0.702439 20.4773C0.829722 20.6872 1.0579 20.8161 1.30367 20.8161H9.56421L6.25034 34.7336C6.168 35.079 6.35685 35.4318 6.68968 35.5563Z" fill="#FDAB89" fill-opacity="0.4"/>
<path d="M6.68968 35.5563C6.77077 35.5853 6.85374 35.6 6.93545 35.6C7.1916 35.6 7.43611 35.4599 7.56056 35.2197L17.4166 16.2117C17.53 15.9936 17.5209 15.7325 17.3933 15.5225C17.2654 15.3129 17.0372 15.184 16.7915 15.184H8.53091L11.8448 1.26656C11.9271 0.920844 11.7386 0.568216 11.4054 0.443483C11.0723 0.321543 10.6986 0.463283 10.5352 0.780084L0.679182 19.7881C0.565721 20.0062 0.574837 20.2674 0.702439 20.4773C0.829722 20.6872 1.0579 20.8161 1.30367 20.8161H9.56421L6.25034 34.7336C6.168 35.079 6.35685 35.4318 6.68968 35.5563Z" fill="#FDB634" fill-opacity="0.3"/>
</svg>
