<svg width="26" height="34" viewBox="0 0 26 34" fill="none" xmlns="http://www.w3.org/2000/svg">
<path d="M19.2989 0.853887V6.81009H25.2551L19.2989 0.853887ZM17.0568 18.7225L13.744 22.9386C13.5432 23.2063 13.2422 23.3737 12.9074 23.4071H12.7737C12.4726 23.4071 12.2049 23.3067 12.0041 23.106L9.89598 21.2991C9.39415 20.8641 9.32716 20.0945 9.76223 19.5927C10.1973 19.0908 10.9669 19.0238 11.4687 19.4589L12.64 20.4628L15.183 17.217C15.5845 16.6816 16.3543 16.6148 16.8895 17.0163C17.3916 17.4175 17.492 18.1873 17.0569 18.7225L17.0568 18.7225ZM18.3284 8.78433C17.7929 8.78433 17.3581 8.34926 17.3581 7.81406V0.285156H3.97338C1.9992 0.285156 0.392853 1.89126 0.392853 3.86569V30.1332C0.392853 32.1074 1.99896 33.7137 3.97338 33.7137H22.277C24.2512 33.7137 25.8575 32.1076 25.8575 30.1332L25.8573 8.78398L18.3284 8.78433ZM20.3362 19.8602C20.3362 25.783 13.7108 28.6606 13.4431 28.7945C13.3427 28.8279 13.2087 28.8615 13.075 28.8615C12.9412 28.8615 12.8406 28.8281 12.7069 28.7945C12.4392 28.6607 5.81376 25.783 5.81376 19.8602V14.9746C5.81376 14.5732 6.0481 14.2385 6.41595 14.1047L12.7737 11.9298C12.9744 11.8628 13.1752 11.8628 13.3425 11.9298L19.7002 14.1047C20.0683 14.2384 20.3024 14.5732 20.3024 14.9746L20.3027 19.8602H20.3362Z" fill="white"/>
<path d="M19.2989 0.853887V6.81009H25.2551L19.2989 0.853887ZM17.0568 18.7225L13.744 22.9386C13.5432 23.2063 13.2422 23.3737 12.9074 23.4071H12.7737C12.4726 23.4071 12.2049 23.3067 12.0041 23.106L9.89598 21.2991C9.39415 20.8641 9.32716 20.0945 9.76223 19.5927C10.1973 19.0908 10.9669 19.0238 11.4687 19.4589L12.64 20.4628L15.183 17.217C15.5845 16.6816 16.3543 16.6148 16.8895 17.0163C17.3916 17.4175 17.492 18.1873 17.0569 18.7225L17.0568 18.7225ZM18.3284 8.78433C17.7929 8.78433 17.3581 8.34926 17.3581 7.81406V0.285156H3.97338C1.9992 0.285156 0.392853 1.89126 0.392853 3.86569V30.1332C0.392853 32.1074 1.99896 33.7137 3.97338 33.7137H22.277C24.2512 33.7137 25.8575 32.1076 25.8575 30.1332L25.8573 8.78398L18.3284 8.78433ZM20.3362 19.8602C20.3362 25.783 13.7108 28.6606 13.4431 28.7945C13.3427 28.8279 13.2087 28.8615 13.075 28.8615C12.9412 28.8615 12.8406 28.8281 12.7069 28.7945C12.4392 28.6607 5.81376 25.783 5.81376 19.8602V14.9746C5.81376 14.5732 6.0481 14.2385 6.41595 14.1047L12.7737 11.9298C12.9744 11.8628 13.1752 11.8628 13.3425 11.9298L19.7002 14.1047C20.0683 14.2384 20.3024 14.5732 20.3024 14.9746L20.3027 19.8602H20.3362Z" fill="#FDAB89" fill-opacity="0.4"/>
<path d="M19.2989 0.853887V6.81009H25.2551L19.2989 0.853887ZM17.0568 18.7225L13.744 22.9386C13.5432 23.2063 13.2422 23.3737 12.9074 23.4071H12.7737C12.4726 23.4071 12.2049 23.3067 12.0041 23.106L9.89598 21.2991C9.39415 20.8641 9.32716 20.0945 9.76223 19.5927C10.1973 19.0908 10.9669 19.0238 11.4687 19.4589L12.64 20.4628L15.183 17.217C15.5845 16.6816 16.3543 16.6148 16.8895 17.0163C17.3916 17.4175 17.492 18.1873 17.0569 18.7225L17.0568 18.7225ZM18.3284 8.78433C17.7929 8.78433 17.3581 8.34926 17.3581 7.81406V0.285156H3.97338C1.9992 0.285156 0.392853 1.89126 0.392853 3.86569V30.1332C0.392853 32.1074 1.99896 33.7137 3.97338 33.7137H22.277C24.2512 33.7137 25.8575 32.1076 25.8575 30.1332L25.8573 8.78398L18.3284 8.78433ZM20.3362 19.8602C20.3362 25.783 13.7108 28.6606 13.4431 28.7945C13.3427 28.8279 13.2087 28.8615 13.075 28.8615C12.9412 28.8615 12.8406 28.8281 12.7069 28.7945C12.4392 28.6607 5.81376 25.783 5.81376 19.8602V14.9746C5.81376 14.5732 6.0481 14.2385 6.41595 14.1047L12.7737 11.9298C12.9744 11.8628 13.1752 11.8628 13.3425 11.9298L19.7002 14.1047C20.0683 14.2384 20.3024 14.5732 20.3024 14.9746L20.3027 19.8602H20.3362Z" fill="#FDB634" fill-opacity="0.3"/>
</svg>
