<svg width="26" height="26" viewBox="0 0 26 26" fill="none" xmlns="http://www.w3.org/2000/svg">
<path d="M13 0.777771L1.6105 5.37919L13 9.98061L24.3895 5.37919L13 0.777771ZM0.77778 7.40109V20.534L11.9815 25.2222V12.0898L0.77778 7.40109ZM25.2222 7.40109L14.0185 12.0898V25.2222L25.2222 20.5335V7.40109Z" fill="white"/>
<path d="M13 0.777771L1.6105 5.37919L13 9.98061L24.3895 5.37919L13 0.777771ZM0.77778 7.40109V20.534L11.9815 25.2222V12.0898L0.77778 7.40109ZM25.2222 7.40109L14.0185 12.0898V25.2222L25.2222 20.5335V7.40109Z" fill="#FDAB89" fill-opacity="0.4"/>
<path d="M13 0.777771L1.6105 5.37919L13 9.98061L24.3895 5.37919L13 0.777771ZM0.77778 7.40109V20.534L11.9815 25.2222V12.0898L0.77778 7.40109ZM25.2222 7.40109L14.0185 12.0898V25.2222L25.2222 20.5335V7.40109Z" fill="#FDB634" fill-opacity="0.3"/>
</svg>
