<svg width="14" height="12" viewBox="0 0 14 12" fill="none" xmlns="http://www.w3.org/2000/svg">
<path d="M1.16675 6.83196L11.0501 6.83196L8.02508 10.4653C7.88363 10.6355 7.81558 10.8549 7.8359 11.0752C7.85621 11.2956 7.96323 11.4988 8.13341 11.6403C8.30359 11.7817 8.523 11.8498 8.74335 11.8295C8.96371 11.8092 9.16697 11.7021 9.30841 11.532L13.4751 6.53196C13.5031 6.49219 13.5282 6.45041 13.5501 6.40696C13.5501 6.3653 13.5501 6.3403 13.6084 6.29863C13.6462 6.20308 13.666 6.10137 13.6667 5.99863C13.666 5.89589 13.6462 5.79418 13.6084 5.69863C13.6084 5.65696 13.6084 5.63196 13.5501 5.5903C13.5282 5.54685 13.5031 5.50507 13.4751 5.4653L9.30842 0.465297C9.23006 0.371228 9.13195 0.295578 9.02104 0.243727C8.91014 0.191876 8.78917 0.165098 8.66675 0.165297C8.47204 0.164917 8.28334 0.232728 8.13342 0.356963C8.04903 0.42692 7.97928 0.512839 7.92815 0.609795C7.87703 0.70675 7.84553 0.812839 7.83547 0.921986C7.82541 1.03113 7.83697 1.14119 7.86951 1.24586C7.90205 1.35053 7.95491 1.44776 8.02508 1.53196L11.0501 5.1653L1.16675 5.1653C0.945735 5.1653 0.733772 5.25309 0.577491 5.40937C0.421212 5.56565 0.333415 5.77762 0.333415 5.99863C0.333415 6.21964 0.421212 6.4316 0.577491 6.58789C0.733772 6.74417 0.945734 6.83196 1.16675 6.83196Z" fill="#9CA2FC"/>
</svg>
