<svg width="48" height="48" viewBox="0 0 48 48" fill="none" xmlns="http://www.w3.org/2000/svg">
<path fill-rule="evenodd" clip-rule="evenodd" d="M32.65 29.798L43.41 40.558C43.7882 40.9365 44.0006 41.4497 44.0004 41.9847C44.0002 42.5197 43.7875 43.0328 43.409 43.411C43.0306 43.7892 42.5174 44.0016 41.9823 44.0014C41.4473 44.0012 40.9342 43.7885 40.556 43.41L29.796 32.65C26.5794 35.1414 22.5346 36.3138 18.4843 35.9287C14.434 35.5436 10.6825 33.6301 7.99299 30.5772C5.30349 27.5244 3.87801 23.5616 4.00653 19.4951C4.13505 15.4286 5.80793 11.5637 8.68483 8.68681C11.5617 5.8099 15.4266 4.13703 19.4931 4.0085C23.5596 3.87998 27.5224 5.30546 30.5752 7.99496C33.6281 10.6845 35.5417 14.436 35.9267 18.4863C36.3118 22.5366 35.1394 26.5814 32.648 29.798H32.65ZM20 32C23.1826 32 26.2349 30.7357 28.4853 28.4853C30.7357 26.2348 32 23.1826 32 20C32 16.8174 30.7357 13.7652 28.4853 11.5147C26.2349 9.26428 23.1826 8 20 8C16.8174 8 13.7652 9.26428 11.5147 11.5147C9.26431 13.7652 8.00002 16.8174 8.00002 20C8.00002 23.1826 9.26431 26.2348 11.5147 28.4853C13.7652 30.7357 16.8174 32 20 32V32Z" fill="white"/>
</svg>
