<svg width="33" height="29" viewBox="0 0 33 29" fill="none" xmlns="http://www.w3.org/2000/svg">
<path d="M32.0999 27.2897C32.0999 27.7087 31.9335 28.1104 31.6372 28.4067C31.3411 28.7028 30.9392 28.8692 30.5205 28.8692H2.47936C1.9151 28.8692 1.39369 28.5681 1.11169 28.0796C0.829447 27.5908 0.829447 26.9887 1.11169 26.5002C1.39371 26.0114 1.91514 25.7104 2.47936 25.7104H4.30249L4.30272 15.5379L4.46186 15.5574C6.0268 15.7244 7.59713 15.2951 8.85923 14.3549C9.73997 15.011 10.778 15.4236 11.8689 15.5507C12.96 15.6779 14.0652 15.5154 15.0731 15.0796V25.7106H25.5381V15.2166C26.1702 15.4098 26.8274 15.5072 27.4882 15.5059C27.6571 15.5059 27.8133 15.5059 27.9951 15.4864C28.2352 15.4673 28.4739 15.4349 28.7101 15.3889V25.7111H30.5335C30.9502 25.7145 31.3485 25.8825 31.6418 26.1784C31.9354 26.4742 32.1 26.8739 32.1 27.2906L32.0999 27.2897ZM22.0928 20.2698C21.9046 20.2693 21.7196 20.3187 21.5566 20.4128L17.9815 22.4799C17.7235 22.6159 17.532 22.8512 17.4513 23.1314C17.3703 23.4116 17.4073 23.7127 17.5531 23.9652C17.699 24.2178 17.9416 24.4 18.2248 24.4699C18.5079 24.5397 18.8074 24.4912 19.054 24.3357L22.6291 22.2686C22.9041 22.1104 23.0948 21.8383 23.1501 21.5259C23.2054 21.2133 23.1195 20.8925 22.9155 20.6495C22.7114 20.4064 22.4102 20.2663 22.0928 20.2666L22.0928 20.2698ZM23.0223 16.4054V16.4056C22.8801 16.159 22.646 15.979 22.3709 15.9051C22.096 15.8314 21.8031 15.8699 21.5566 16.0123L17.9784 18.0762C17.7204 18.2122 17.5289 18.4473 17.4479 18.7275C17.3672 19.0079 17.4039 19.309 17.5499 19.5615C17.6959 19.8141 17.9385 19.9963 18.2216 20.0662C18.5048 20.136 18.8043 20.0875 19.0509 19.9317L22.626 17.8647L22.6258 17.8649C22.8718 17.7239 23.052 17.4911 23.127 17.2177C23.2018 16.9443 23.1653 16.6523 23.0257 16.4056L23.0223 16.4054ZM23.7405 11.3971L23.7407 11.3973C23.8352 11.3966 23.923 11.446 23.9713 11.5274C24.7235 12.741 26.0503 13.4786 27.4781 13.4773H27.8032C30.4781 13.2726 32.0704 10.3736 30.9721 7.92945L26.9678 0.935563C26.6865 0.44407 26.1658 0.1385 25.5997 0.132812H7.01612C6.735 0.132812 6.45888 0.206942 6.21586 0.347951C5.97284 0.48896 5.77107 0.691633 5.63145 0.935563L1.63401 7.91958C0.558317 10.3181 2.06293 13.2008 4.67931 13.4575C4.82735 13.4727 4.97584 13.4804 5.12456 13.4801C6.55235 13.4817 7.87922 12.7438 8.63142 11.5303C8.67925 11.4493 8.7663 11.3999 8.86039 11.3999C8.95447 11.3999 9.04152 11.4493 9.08958 11.5303C9.83522 12.7379 11.1498 13.4767 12.569 13.486C13.9884 13.4953 15.3125 12.7735 16.0738 11.5758C16.1221 11.4965 16.2085 11.448 16.3014 11.448C16.3942 11.448 16.4805 11.4965 16.5288 11.5758C17.2896 12.774 18.6133 13.4962 20.0327 13.4876C21.4519 13.4789 22.7667 12.7406 23.5131 11.5334C23.5593 11.4506 23.6459 11.3987 23.7407 11.3969L23.7405 11.3971Z" fill="white"/>
<path d="M32.0999 27.2897C32.0999 27.7087 31.9335 28.1104 31.6372 28.4067C31.3411 28.7028 30.9392 28.8692 30.5205 28.8692H2.47936C1.9151 28.8692 1.39369 28.5681 1.11169 28.0796C0.829447 27.5908 0.829447 26.9887 1.11169 26.5002C1.39371 26.0114 1.91514 25.7104 2.47936 25.7104H4.30249L4.30272 15.5379L4.46186 15.5574C6.0268 15.7244 7.59713 15.2951 8.85923 14.3549C9.73997 15.011 10.778 15.4236 11.8689 15.5507C12.96 15.6779 14.0652 15.5154 15.0731 15.0796V25.7106H25.5381V15.2166C26.1702 15.4098 26.8274 15.5072 27.4882 15.5059C27.6571 15.5059 27.8133 15.5059 27.9951 15.4864C28.2352 15.4673 28.4739 15.4349 28.7101 15.3889V25.7111H30.5335C30.9502 25.7145 31.3485 25.8825 31.6418 26.1784C31.9354 26.4742 32.1 26.8739 32.1 27.2906L32.0999 27.2897ZM22.0928 20.2698C21.9046 20.2693 21.7196 20.3187 21.5566 20.4128L17.9815 22.4799C17.7235 22.6159 17.532 22.8512 17.4513 23.1314C17.3703 23.4116 17.4073 23.7127 17.5531 23.9652C17.699 24.2178 17.9416 24.4 18.2248 24.4699C18.5079 24.5397 18.8074 24.4912 19.054 24.3357L22.6291 22.2686C22.9041 22.1104 23.0948 21.8383 23.1501 21.5259C23.2054 21.2133 23.1195 20.8925 22.9155 20.6495C22.7114 20.4064 22.4102 20.2663 22.0928 20.2666L22.0928 20.2698ZM23.0223 16.4054V16.4056C22.8801 16.159 22.646 15.979 22.3709 15.9051C22.096 15.8314 21.8031 15.8699 21.5566 16.0123L17.9784 18.0762C17.7204 18.2122 17.5289 18.4473 17.4479 18.7275C17.3672 19.0079 17.4039 19.309 17.5499 19.5615C17.6959 19.8141 17.9385 19.9963 18.2216 20.0662C18.5048 20.136 18.8043 20.0875 19.0509 19.9317L22.626 17.8647L22.6258 17.8649C22.8718 17.7239 23.052 17.4911 23.127 17.2177C23.2018 16.9443 23.1653 16.6523 23.0257 16.4056L23.0223 16.4054ZM23.7405 11.3971L23.7407 11.3973C23.8352 11.3966 23.923 11.446 23.9713 11.5274C24.7235 12.741 26.0503 13.4786 27.4781 13.4773H27.8032C30.4781 13.2726 32.0704 10.3736 30.9721 7.92945L26.9678 0.935563C26.6865 0.44407 26.1658 0.1385 25.5997 0.132812H7.01612C6.735 0.132812 6.45888 0.206942 6.21586 0.347951C5.97284 0.48896 5.77107 0.691633 5.63145 0.935563L1.63401 7.91958C0.558317 10.3181 2.06293 13.2008 4.67931 13.4575C4.82735 13.4727 4.97584 13.4804 5.12456 13.4801C6.55235 13.4817 7.87922 12.7438 8.63142 11.5303C8.67925 11.4493 8.7663 11.3999 8.86039 11.3999C8.95447 11.3999 9.04152 11.4493 9.08958 11.5303C9.83522 12.7379 11.1498 13.4767 12.569 13.486C13.9884 13.4953 15.3125 12.7735 16.0738 11.5758C16.1221 11.4965 16.2085 11.448 16.3014 11.448C16.3942 11.448 16.4805 11.4965 16.5288 11.5758C17.2896 12.774 18.6133 13.4962 20.0327 13.4876C21.4519 13.4789 22.7667 12.7406 23.5131 11.5334C23.5593 11.4506 23.6459 11.3987 23.7407 11.3969L23.7405 11.3971Z" fill="#FDAB89" fill-opacity="0.4"/>
<path d="M32.0999 27.2897C32.0999 27.7087 31.9335 28.1104 31.6372 28.4067C31.3411 28.7028 30.9392 28.8692 30.5205 28.8692H2.47936C1.9151 28.8692 1.39369 28.5681 1.11169 28.0796C0.829447 27.5908 0.829447 26.9887 1.11169 26.5002C1.39371 26.0114 1.91514 25.7104 2.47936 25.7104H4.30249L4.30272 15.5379L4.46186 15.5574C6.0268 15.7244 7.59713 15.2951 8.85923 14.3549C9.73997 15.011 10.778 15.4236 11.8689 15.5507C12.96 15.6779 14.0652 15.5154 15.0731 15.0796V25.7106H25.5381V15.2166C26.1702 15.4098 26.8274 15.5072 27.4882 15.5059C27.6571 15.5059 27.8133 15.5059 27.9951 15.4864C28.2352 15.4673 28.4739 15.4349 28.7101 15.3889V25.7111H30.5335C30.9502 25.7145 31.3485 25.8825 31.6418 26.1784C31.9354 26.4742 32.1 26.8739 32.1 27.2906L32.0999 27.2897ZM22.0928 20.2698C21.9046 20.2693 21.7196 20.3187 21.5566 20.4128L17.9815 22.4799C17.7235 22.6159 17.532 22.8512 17.4513 23.1314C17.3703 23.4116 17.4073 23.7127 17.5531 23.9652C17.699 24.2178 17.9416 24.4 18.2248 24.4699C18.5079 24.5397 18.8074 24.4912 19.054 24.3357L22.6291 22.2686C22.9041 22.1104 23.0948 21.8383 23.1501 21.5259C23.2054 21.2133 23.1195 20.8925 22.9155 20.6495C22.7114 20.4064 22.4102 20.2663 22.0928 20.2666L22.0928 20.2698ZM23.0223 16.4054V16.4056C22.8801 16.159 22.646 15.979 22.3709 15.9051C22.096 15.8314 21.8031 15.8699 21.5566 16.0123L17.9784 18.0762C17.7204 18.2122 17.5289 18.4473 17.4479 18.7275C17.3672 19.0079 17.4039 19.309 17.5499 19.5615C17.6959 19.8141 17.9385 19.9963 18.2216 20.0662C18.5048 20.136 18.8043 20.0875 19.0509 19.9317L22.626 17.8647L22.6258 17.8649C22.8718 17.7239 23.052 17.4911 23.127 17.2177C23.2018 16.9443 23.1653 16.6523 23.0257 16.4056L23.0223 16.4054ZM23.7405 11.3971L23.7407 11.3973C23.8352 11.3966 23.923 11.446 23.9713 11.5274C24.7235 12.741 26.0503 13.4786 27.4781 13.4773H27.8032C30.4781 13.2726 32.0704 10.3736 30.9721 7.92945L26.9678 0.935563C26.6865 0.44407 26.1658 0.1385 25.5997 0.132812H7.01612C6.735 0.132812 6.45888 0.206942 6.21586 0.347951C5.97284 0.48896 5.77107 0.691633 5.63145 0.935563L1.63401 7.91958C0.558317 10.3181 2.06293 13.2008 4.67931 13.4575C4.82735 13.4727 4.97584 13.4804 5.12456 13.4801C6.55235 13.4817 7.87922 12.7438 8.63142 11.5303C8.67925 11.4493 8.7663 11.3999 8.86039 11.3999C8.95447 11.3999 9.04152 11.4493 9.08958 11.5303C9.83522 12.7379 11.1498 13.4767 12.569 13.486C13.9884 13.4953 15.3125 12.7735 16.0738 11.5758C16.1221 11.4965 16.2085 11.448 16.3014 11.448C16.3942 11.448 16.4805 11.4965 16.5288 11.5758C17.2896 12.774 18.6133 13.4962 20.0327 13.4876C21.4519 13.4789 22.7667 12.7406 23.5131 11.5334C23.5593 11.4506 23.6459 11.3987 23.7407 11.3969L23.7405 11.3971Z" fill="#FDB634" fill-opacity="0.3"/>
</svg>
