<svg width="40" height="40" viewBox="0 0 40 40" fill="none" xmlns="http://www.w3.org/2000/svg">
<rect x="1" y="1" width="38" height="38" rx="19" fill="white"/>
<path fill-rule="evenodd" clip-rule="evenodd" d="M24.325 22.899L29.705 28.279C29.8941 28.4682 30.0003 28.7248 30.0002 28.9923C30.0001 29.2599 29.8937 29.5164 29.7045 29.7055C29.5153 29.8946 29.2587 30.0008 28.9912 30.0007C28.7236 30.0006 28.4671 29.8942 28.278 29.705L22.898 24.325C21.2897 25.5707 19.2673 26.1569 17.2421 25.9643C15.217 25.7718 13.3412 24.815 11.9965 23.2886C10.6517 21.7622 9.939 19.7808 10.0033 17.7475C10.0675 15.7143 10.904 13.7818 12.3424 12.3434C13.7809 10.9049 15.7133 10.0685 17.7466 10.0042C19.7798 9.93998 21.7612 10.6527 23.2876 11.9975C24.814 13.3422 25.7708 15.218 25.9634 17.2431C26.1559 19.2683 25.5697 21.2907 24.324 22.899H24.325ZM18 24C19.5913 24 21.1174 23.3678 22.2427 22.2426C23.3679 21.1174 24 19.5913 24 18C24 16.4087 23.3679 14.8826 22.2427 13.7573C21.1174 12.6321 19.5913 12 18 12C16.4087 12 14.8826 12.6321 13.7574 13.7573C12.6322 14.8826 12 16.4087 12 18C12 19.5913 12.6322 21.1174 13.7574 22.2426C14.8826 23.3678 16.4087 24 18 24Z" fill="#053385"/>
<rect x="1" y="1" width="38" height="38" rx="19" stroke="#053385" stroke-width="2"/>
</svg>
