<svg width="14" height="12" viewBox="0 0 14 12" fill="none" xmlns="http://www.w3.org/2000/svg">
<path d="M1.16675 6.83227L11.0501 6.83227L8.02508 10.4656C7.88363 10.6358 7.81558 10.8552 7.8359 11.0755C7.85621 11.2959 7.96323 11.4992 8.13341 11.6406C8.30359 11.7821 8.523 11.8501 8.74335 11.8298C8.96371 11.8095 9.16697 11.7024 9.30841 11.5323L13.4751 6.53227C13.5031 6.4925 13.5282 6.45072 13.5501 6.40727C13.5501 6.3656 13.5501 6.3406 13.6084 6.29894C13.6462 6.20339 13.666 6.10168 13.6667 5.99894C13.666 5.89619 13.6462 5.79449 13.6084 5.69894C13.6084 5.65727 13.6084 5.63227 13.5501 5.5906C13.5282 5.54715 13.5031 5.50537 13.4751 5.4656L9.30842 0.465602C9.23006 0.371533 9.13195 0.295883 9.02104 0.244032C8.91014 0.192181 8.78917 0.165403 8.66675 0.165602C8.47204 0.165221 8.28334 0.233034 8.13342 0.357268C8.04903 0.427226 7.97928 0.513144 7.92816 0.6101C7.87703 0.707056 7.84553 0.813144 7.83547 0.922292C7.8254 1.03144 7.83697 1.1415 7.86951 1.24617C7.90205 1.35084 7.95491 1.44806 8.02508 1.53227L11.0501 5.1656L1.16675 5.1656C0.945734 5.1656 0.733772 5.2534 0.577492 5.40968C0.421211 5.56596 0.333415 5.77792 0.333415 5.99893C0.333415 6.21995 0.421211 6.43191 0.577492 6.58819C0.733772 6.74447 0.945734 6.83227 1.16675 6.83227Z" fill="#9CA2FC"/>
</svg>
