<svg width="30" height="30" viewBox="0 0 30 30" fill="none" xmlns="http://www.w3.org/2000/svg">
<path fill-rule="evenodd" clip-rule="evenodd" d="M21.0956 19.0373L28.5891 26.5309C28.8525 26.7945 29.0004 27.1519 29.0003 27.5245C29.0002 27.8971 28.852 28.2544 28.5884 28.5178C28.3249 28.7812 27.9675 28.9291 27.5948 28.929C27.2222 28.9288 26.8649 28.7807 26.6015 28.5171L19.108 21.0236C16.8678 22.7586 14.0509 23.5751 11.2301 23.3069C8.40938 23.0388 5.79674 21.7061 3.9237 19.58C2.05065 17.4539 1.05791 14.6941 1.14741 11.8621C1.23692 9.03005 2.40196 6.33846 4.40552 4.3349C6.40908 2.33134 9.10066 1.1663 11.9327 1.07679C14.7648 0.987287 17.5245 1.98003 19.6506 3.85308C21.7767 5.72612 23.1094 8.33877 23.3775 11.1595C23.6457 13.9803 22.8292 16.7972 21.0942 19.0373H21.0956ZM12.2857 20.5709C14.5022 20.5709 16.6279 19.6904 18.1951 18.1231C19.7624 16.5559 20.6429 14.4302 20.6429 12.2137C20.6429 9.99728 19.7624 7.87161 18.1951 6.30434C16.6279 4.73707 14.5022 3.85659 12.2857 3.85659C10.0693 3.85659 7.94362 4.73707 6.37635 6.30434C4.80908 7.87161 3.9286 9.99728 3.9286 12.2137C3.9286 14.4302 4.80908 16.5559 6.37635 18.1231C7.94362 19.6904 10.0693 20.5709 12.2857 20.5709V20.5709Z" fill="white"/>
<path fill-rule="evenodd" clip-rule="evenodd" d="M21.0956 19.0373L28.5891 26.5309C28.8525 26.7945 29.0004 27.1519 29.0003 27.5245C29.0002 27.8971 28.852 28.2544 28.5884 28.5178C28.3249 28.7812 27.9675 28.9291 27.5948 28.929C27.2222 28.9288 26.8649 28.7807 26.6015 28.5171L19.108 21.0236C16.8678 22.7586 14.0509 23.5751 11.2301 23.3069C8.40938 23.0388 5.79674 21.7061 3.9237 19.58C2.05065 17.4539 1.05791 14.6941 1.14741 11.8621C1.23692 9.03005 2.40196 6.33846 4.40552 4.3349C6.40908 2.33134 9.10066 1.1663 11.9327 1.07679C14.7648 0.987287 17.5245 1.98003 19.6506 3.85308C21.7767 5.72612 23.1094 8.33877 23.3775 11.1595C23.6457 13.9803 22.8292 16.7972 21.0942 19.0373H21.0956ZM12.2857 20.5709C14.5022 20.5709 16.6279 19.6904 18.1951 18.1231C19.7624 16.5559 20.6429 14.4302 20.6429 12.2137C20.6429 9.99728 19.7624 7.87161 18.1951 6.30434C16.6279 4.73707 14.5022 3.85659 12.2857 3.85659C10.0693 3.85659 7.94362 4.73707 6.37635 6.30434C4.80908 7.87161 3.9286 9.99728 3.9286 12.2137C3.9286 14.4302 4.80908 16.5559 6.37635 18.1231C7.94362 19.6904 10.0693 20.5709 12.2857 20.5709V20.5709Z" fill="#FDAB89" fill-opacity="0.4"/>
<path fill-rule="evenodd" clip-rule="evenodd" d="M21.0956 19.0373L28.5891 26.5309C28.8525 26.7945 29.0004 27.1519 29.0003 27.5245C29.0002 27.8971 28.852 28.2544 28.5884 28.5178C28.3249 28.7812 27.9675 28.9291 27.5948 28.929C27.2222 28.9288 26.8649 28.7807 26.6015 28.5171L19.108 21.0236C16.8678 22.7586 14.0509 23.5751 11.2301 23.3069C8.40938 23.0388 5.79674 21.7061 3.9237 19.58C2.05065 17.4539 1.05791 14.6941 1.14741 11.8621C1.23692 9.03005 2.40196 6.33846 4.40552 4.3349C6.40908 2.33134 9.10066 1.1663 11.9327 1.07679C14.7648 0.987287 17.5245 1.98003 19.6506 3.85308C21.7767 5.72612 23.1094 8.33877 23.3775 11.1595C23.6457 13.9803 22.8292 16.7972 21.0942 19.0373H21.0956ZM12.2857 20.5709C14.5022 20.5709 16.6279 19.6904 18.1951 18.1231C19.7624 16.5559 20.6429 14.4302 20.6429 12.2137C20.6429 9.99728 19.7624 7.87161 18.1951 6.30434C16.6279 4.73707 14.5022 3.85659 12.2857 3.85659C10.0693 3.85659 7.94362 4.73707 6.37635 6.30434C4.80908 7.87161 3.9286 9.99728 3.9286 12.2137C3.9286 14.4302 4.80908 16.5559 6.37635 18.1231C7.94362 19.6904 10.0693 20.5709 12.2857 20.5709V20.5709Z" fill="#FDB634" fill-opacity="0.3"/>
<path fill-rule="evenodd" clip-rule="evenodd" d="M21.0956 19.0373L28.5891 26.5309C28.8525 26.7945 29.0004 27.1519 29.0003 27.5245C29.0002 27.8971 28.852 28.2544 28.5884 28.5178C28.3249 28.7812 27.9675 28.9291 27.5948 28.929C27.2222 28.9288 26.8649 28.7807 26.6015 28.5171L19.108 21.0236C16.8678 22.7586 14.0509 23.5751 11.2301 23.3069C8.40938 23.0388 5.79674 21.7061 3.9237 19.58C2.05065 17.4539 1.05791 14.6941 1.14741 11.8621C1.23692 9.03005 2.40196 6.33846 4.40552 4.3349C6.40908 2.33134 9.10066 1.1663 11.9327 1.07679C14.7648 0.987287 17.5245 1.98003 19.6506 3.85308C21.7767 5.72612 23.1094 8.33877 23.3775 11.1595C23.6457 13.9803 22.8292 16.7972 21.0942 19.0373H21.0956ZM12.2857 20.5709C14.5022 20.5709 16.6279 19.6904 18.1951 18.1231C19.7624 16.5559 20.6429 14.4302 20.6429 12.2137C20.6429 9.99728 19.7624 7.87161 18.1951 6.30434C16.6279 4.73707 14.5022 3.85659 12.2857 3.85659C10.0693 3.85659 7.94362 4.73707 6.37635 6.30434C4.80908 7.87161 3.9286 9.99728 3.9286 12.2137C3.9286 14.4302 4.80908 16.5559 6.37635 18.1231C7.94362 19.6904 10.0693 20.5709 12.2857 20.5709V20.5709Z" stroke="white"/>
<path fill-rule="evenodd" clip-rule="evenodd" d="M21.0956 19.0373L28.5891 26.5309C28.8525 26.7945 29.0004 27.1519 29.0003 27.5245C29.0002 27.8971 28.852 28.2544 28.5884 28.5178C28.3249 28.7812 27.9675 28.9291 27.5948 28.929C27.2222 28.9288 26.8649 28.7807 26.6015 28.5171L19.108 21.0236C16.8678 22.7586 14.0509 23.5751 11.2301 23.3069C8.40938 23.0388 5.79674 21.7061 3.9237 19.58C2.05065 17.4539 1.05791 14.6941 1.14741 11.8621C1.23692 9.03005 2.40196 6.33846 4.40552 4.3349C6.40908 2.33134 9.10066 1.1663 11.9327 1.07679C14.7648 0.987287 17.5245 1.98003 19.6506 3.85308C21.7767 5.72612 23.1094 8.33877 23.3775 11.1595C23.6457 13.9803 22.8292 16.7972 21.0942 19.0373H21.0956ZM12.2857 20.5709C14.5022 20.5709 16.6279 19.6904 18.1951 18.1231C19.7624 16.5559 20.6429 14.4302 20.6429 12.2137C20.6429 9.99728 19.7624 7.87161 18.1951 6.30434C16.6279 4.73707 14.5022 3.85659 12.2857 3.85659C10.0693 3.85659 7.94362 4.73707 6.37635 6.30434C4.80908 7.87161 3.9286 9.99728 3.9286 12.2137C3.9286 14.4302 4.80908 16.5559 6.37635 18.1231C7.94362 19.6904 10.0693 20.5709 12.2857 20.5709V20.5709Z" stroke="#FDAB89" stroke-opacity="0.4"/>
<path fill-rule="evenodd" clip-rule="evenodd" d="M21.0956 19.0373L28.5891 26.5309C28.8525 26.7945 29.0004 27.1519 29.0003 27.5245C29.0002 27.8971 28.852 28.2544 28.5884 28.5178C28.3249 28.7812 27.9675 28.9291 27.5948 28.929C27.2222 28.9288 26.8649 28.7807 26.6015 28.5171L19.108 21.0236C16.8678 22.7586 14.0509 23.5751 11.2301 23.3069C8.40938 23.0388 5.79674 21.7061 3.9237 19.58C2.05065 17.4539 1.05791 14.6941 1.14741 11.8621C1.23692 9.03005 2.40196 6.33846 4.40552 4.3349C6.40908 2.33134 9.10066 1.1663 11.9327 1.07679C14.7648 0.987287 17.5245 1.98003 19.6506 3.85308C21.7767 5.72612 23.1094 8.33877 23.3775 11.1595C23.6457 13.9803 22.8292 16.7972 21.0942 19.0373H21.0956ZM12.2857 20.5709C14.5022 20.5709 16.6279 19.6904 18.1951 18.1231C19.7624 16.5559 20.6429 14.4302 20.6429 12.2137C20.6429 9.99728 19.7624 7.87161 18.1951 6.30434C16.6279 4.73707 14.5022 3.85659 12.2857 3.85659C10.0693 3.85659 7.94362 4.73707 6.37635 6.30434C4.80908 7.87161 3.9286 9.99728 3.9286 12.2137C3.9286 14.4302 4.80908 16.5559 6.37635 18.1231C7.94362 19.6904 10.0693 20.5709 12.2857 20.5709V20.5709Z" stroke="#FDB634" stroke-opacity="0.3"/>
</svg>
