<svg width="12" height="24" viewBox="0 0 12 24" fill="none" xmlns="http://www.w3.org/2000/svg">
<path d="M11.8801 5.71333C11.8801 4.12383 11.2568 2.78366 10.0724 1.724C8.88809 0.66433 7.17392 0.103333 4.96109 0.103333C3.46509 0.103333 1.90675 0.383832 0.348419 0.913664L1.03409 4.903C2.03142 4.529 2.99759 4.342 3.87025 4.342C5.55325 4.342 6.42592 5.02767 6.42592 6.33667C6.42592 6.773 6.27009 7.20933 5.98959 7.64567C5.67792 8.082 5.33509 8.51833 4.89875 8.95467C4.46242 9.391 4.05725 9.82733 3.62092 10.326C3.18459 10.8247 2.84175 11.4168 2.56125 12.1337C2.24959 12.8817 2.12492 13.6608 2.12492 14.5335V15.9672H6.17659V14.814C6.17659 14.1595 6.36359 13.5362 6.76875 12.944C7.14275 12.383 7.64142 11.8532 8.20242 11.3545C8.76342 10.887 9.29325 10.3883 9.85425 9.88967C10.4153 9.391 10.8828 8.76767 11.2879 8.05083C11.6619 7.36517 11.8801 6.586 11.8801 5.71333ZM6.58175 20.9538C6.58175 20.2682 6.33242 19.7072 5.86492 19.2085C5.36625 18.741 4.80525 18.4917 4.11959 18.4917C3.43392 18.4917 2.84175 18.741 2.37425 19.2085C1.87559 19.7072 1.65742 20.2682 1.65742 20.9538C1.65742 21.6395 1.87559 22.2317 2.37425 22.6992C2.84175 23.1978 3.43392 23.416 4.11959 23.416C4.80525 23.416 5.36625 23.1978 5.86492 22.6992C6.33242 22.2317 6.58175 21.6395 6.58175 20.9538Z" fill="white"/>
<path d="M11.8801 5.71333C11.8801 4.12383 11.2568 2.78366 10.0724 1.724C8.88809 0.66433 7.17392 0.103333 4.96109 0.103333C3.46509 0.103333 1.90675 0.383832 0.348419 0.913664L1.03409 4.903C2.03142 4.529 2.99759 4.342 3.87025 4.342C5.55325 4.342 6.42592 5.02767 6.42592 6.33667C6.42592 6.773 6.27009 7.20933 5.98959 7.64567C5.67792 8.082 5.33509 8.51833 4.89875 8.95467C4.46242 9.391 4.05725 9.82733 3.62092 10.326C3.18459 10.8247 2.84175 11.4168 2.56125 12.1337C2.24959 12.8817 2.12492 13.6608 2.12492 14.5335V15.9672H6.17659V14.814C6.17659 14.1595 6.36359 13.5362 6.76875 12.944C7.14275 12.383 7.64142 11.8532 8.20242 11.3545C8.76342 10.887 9.29325 10.3883 9.85425 9.88967C10.4153 9.391 10.8828 8.76767 11.2879 8.05083C11.6619 7.36517 11.8801 6.586 11.8801 5.71333ZM6.58175 20.9538C6.58175 20.2682 6.33242 19.7072 5.86492 19.2085C5.36625 18.741 4.80525 18.4917 4.11959 18.4917C3.43392 18.4917 2.84175 18.741 2.37425 19.2085C1.87559 19.7072 1.65742 20.2682 1.65742 20.9538C1.65742 21.6395 1.87559 22.2317 2.37425 22.6992C2.84175 23.1978 3.43392 23.416 4.11959 23.416C4.80525 23.416 5.36625 23.1978 5.86492 22.6992C6.33242 22.2317 6.58175 21.6395 6.58175 20.9538Z" fill="#FDAB89" fill-opacity="0.4"/>
<path d="M11.8801 5.71333C11.8801 4.12383 11.2568 2.78366 10.0724 1.724C8.88809 0.66433 7.17392 0.103333 4.96109 0.103333C3.46509 0.103333 1.90675 0.383832 0.348419 0.913664L1.03409 4.903C2.03142 4.529 2.99759 4.342 3.87025 4.342C5.55325 4.342 6.42592 5.02767 6.42592 6.33667C6.42592 6.773 6.27009 7.20933 5.98959 7.64567C5.67792 8.082 5.33509 8.51833 4.89875 8.95467C4.46242 9.391 4.05725 9.82733 3.62092 10.326C3.18459 10.8247 2.84175 11.4168 2.56125 12.1337C2.24959 12.8817 2.12492 13.6608 2.12492 14.5335V15.9672H6.17659V14.814C6.17659 14.1595 6.36359 13.5362 6.76875 12.944C7.14275 12.383 7.64142 11.8532 8.20242 11.3545C8.76342 10.887 9.29325 10.3883 9.85425 9.88967C10.4153 9.391 10.8828 8.76767 11.2879 8.05083C11.6619 7.36517 11.8801 6.586 11.8801 5.71333ZM6.58175 20.9538C6.58175 20.2682 6.33242 19.7072 5.86492 19.2085C5.36625 18.741 4.80525 18.4917 4.11959 18.4917C3.43392 18.4917 2.84175 18.741 2.37425 19.2085C1.87559 19.7072 1.65742 20.2682 1.65742 20.9538C1.65742 21.6395 1.87559 22.2317 2.37425 22.6992C2.84175 23.1978 3.43392 23.416 4.11959 23.416C4.80525 23.416 5.36625 23.1978 5.86492 22.6992C6.33242 22.2317 6.58175 21.6395 6.58175 20.9538Z" fill="#FDB634" fill-opacity="0.3"/>
</svg>
