<svg width="24" height="24" viewBox="0 0 24 24" fill="none" xmlns="http://www.w3.org/2000/svg">
<path d="M12.9987 19L12.9987 7.14L17.3587 10.77C17.563 10.9397 17.8262 11.0214 18.0907 10.997C18.3551 10.9726 18.599 10.8442 18.7687 10.64C18.9385 10.4358 19.0201 10.1725 18.9958 9.90808C18.9714 9.64365 18.843 9.39974 18.6387 9.23L12.6387 4.23C12.591 4.19636 12.5409 4.16628 12.4887 4.14C12.4387 4.14 12.4087 4.14 12.3587 4.07C12.2441 4.02467 12.122 4.00094 11.9987 4C11.8755 4.00094 11.7534 4.02467 11.6387 4.07C11.5887 4.07 11.5587 4.07 11.5087 4.14C11.4566 4.16628 11.4065 4.19636 11.3587 4.23L5.35875 9.23C5.24587 9.32402 5.15509 9.44176 5.09286 9.57485C5.03064 9.70793 4.99851 9.85309 4.99875 10C4.99829 10.2337 5.07967 10.4601 5.22875 10.64C5.3127 10.7413 5.4158 10.825 5.53215 10.8863C5.64849 10.9477 5.7758 10.9855 5.90678 10.9975C6.03775 11.0096 6.16982 10.9957 6.29543 10.9567C6.42103 10.9176 6.5377 10.8542 6.63875 10.77L10.9987 7.14L10.9987 19C10.9987 19.2652 11.1041 19.5196 11.2916 19.7071C11.4792 19.8946 11.7335 20 11.9987 20C12.264 20 12.5183 19.8946 12.7059 19.7071C12.8934 19.5196 12.9987 19.2652 12.9987 19Z" fill="#053385"/>
</svg>
