<svg width="40" height="40" viewBox="0 0 40 40" fill="none" xmlns="http://www.w3.org/2000/svg">
<path d="M0 20C0 8.95431 8.95431 0 20 0V0C31.0457 0 40 8.95431 40 20V20C40 31.0457 31.0457 40 20 40V40C8.95431 40 0 31.0457 0 20V20Z" fill="white" fill-opacity="0.8"/>
<path d="M21.5683 11.7319C21.9684 11.3318 22.6204 11.3431 23.0064 11.7567L23.0454 11.7984C23.4113 12.1905 23.4028 12.8014 23.0262 13.1831L16.9932 19.2977C16.609 19.6871 16.609 20.3129 16.9932 20.7023L23.0262 26.8169C23.4028 27.1986 23.4113 27.8095 23.0454 28.2016L23.0064 28.2433C22.6204 28.6569 21.9684 28.6682 21.5683 28.2681L14.0073 20.7071C13.6168 20.3166 13.6168 19.6834 14.0073 19.2929L21.5683 11.7319Z" fill="#053385"/>
</svg>
