<svg width="53" height="52" viewBox="0 0 53 52" fill="none" xmlns="http://www.w3.org/2000/svg">
<rect x="0.5" width="52" height="52" rx="26" fill="#053385"/>
<path d="M42.0999 39.2897C42.0999 39.7087 41.9335 40.1104 41.6372 40.4067C41.3411 40.7028 40.9392 40.8692 40.5205 40.8692H12.4794C11.9151 40.8692 11.3937 40.5681 11.1117 40.0796C10.8294 39.5908 10.8294 38.9887 11.1117 38.5002C11.3937 38.0114 11.9151 37.7104 12.4794 37.7104H14.3025L14.3027 27.5379L14.4619 27.5574C16.0268 27.7244 17.5971 27.2951 18.8592 26.3549C19.74 27.011 20.778 27.4236 21.8689 27.5507C22.96 27.6779 24.0652 27.5154 25.0731 27.0796V37.7106H35.5381V27.2166C36.1702 27.4098 36.8274 27.5072 37.4882 27.5059C37.6571 27.5059 37.8133 27.5059 37.9951 27.4864C38.2352 27.4673 38.4739 27.4349 38.7101 27.3889V37.7111H40.5335C40.9502 37.7145 41.3485 37.8825 41.6418 38.1784C41.9354 38.4742 42.1 38.8739 42.1 39.2906L42.0999 39.2897ZM32.0928 32.2698C31.9046 32.2693 31.7196 32.3187 31.5566 32.4128L27.9815 34.4799C27.7235 34.6159 27.532 34.8512 27.4513 35.1314C27.3703 35.4116 27.4073 35.7127 27.5531 35.9652C27.699 36.2178 27.9416 36.4 28.2248 36.4699C28.5079 36.5397 28.8074 36.4912 29.054 36.3357L32.6291 34.2686C32.9041 34.1104 33.0948 33.8383 33.1501 33.5259C33.2054 33.2133 33.1195 32.8925 32.9155 32.6495C32.7114 32.4064 32.4102 32.2663 32.0928 32.2666L32.0928 32.2698ZM33.0223 28.4054V28.4056C32.8801 28.159 32.646 27.979 32.3709 27.9051C32.096 27.8314 31.8031 27.8699 31.5566 28.0123L27.9784 30.0762C27.7204 30.2122 27.5289 30.4473 27.4479 30.7275C27.3672 31.0079 27.4039 31.309 27.5499 31.5615C27.6959 31.8141 27.9385 31.9963 28.2216 32.0662C28.5048 32.136 28.8043 32.0875 29.0509 31.9317L32.626 29.8647L32.6258 29.8649C32.8718 29.7239 33.052 29.4911 33.127 29.2177C33.2018 28.9443 33.1653 28.6523 33.0257 28.4056L33.0223 28.4054ZM33.7405 23.3971L33.7407 23.3973C33.8352 23.3966 33.923 23.446 33.9713 23.5274C34.7235 24.741 36.0503 25.4786 37.4781 25.4773H37.8032C40.4781 25.2726 42.0704 22.3736 40.9721 19.9294L36.9678 12.9356C36.6865 12.4441 36.1658 12.1385 35.5997 12.1328H17.0161C16.735 12.1328 16.4589 12.2069 16.2159 12.348C15.9728 12.489 15.7711 12.6916 15.6314 12.9356L11.634 19.9196C10.5583 22.3181 12.0629 25.2008 14.6793 25.4575C14.8273 25.4727 14.9758 25.4804 15.1246 25.4801C16.5523 25.4817 17.8792 24.7438 18.6314 23.5303C18.6793 23.4493 18.7663 23.3999 18.8604 23.3999C18.9545 23.3999 19.0415 23.4493 19.0896 23.5303C19.8352 24.7379 21.1498 25.4767 22.569 25.486C23.9884 25.4953 25.3125 24.7735 26.0738 23.5758C26.1221 23.4965 26.2085 23.448 26.3014 23.448C26.3942 23.448 26.4805 23.4965 26.5288 23.5758C27.2896 24.774 28.6133 25.4962 30.0327 25.4876C31.4519 25.4789 32.7667 24.7406 33.5131 23.5334C33.5593 23.4506 33.6459 23.3987 33.7407 23.3969L33.7405 23.3971Z" fill="white"/>
<path d="M42.0999 39.2897C42.0999 39.7087 41.9335 40.1104 41.6372 40.4067C41.3411 40.7028 40.9392 40.8692 40.5205 40.8692H12.4794C11.9151 40.8692 11.3937 40.5681 11.1117 40.0796C10.8294 39.5908 10.8294 38.9887 11.1117 38.5002C11.3937 38.0114 11.9151 37.7104 12.4794 37.7104H14.3025L14.3027 27.5379L14.4619 27.5574C16.0268 27.7244 17.5971 27.2951 18.8592 26.3549C19.74 27.011 20.778 27.4236 21.8689 27.5507C22.96 27.6779 24.0652 27.5154 25.0731 27.0796V37.7106H35.5381V27.2166C36.1702 27.4098 36.8274 27.5072 37.4882 27.5059C37.6571 27.5059 37.8133 27.5059 37.9951 27.4864C38.2352 27.4673 38.4739 27.4349 38.7101 27.3889V37.7111H40.5335C40.9502 37.7145 41.3485 37.8825 41.6418 38.1784C41.9354 38.4742 42.1 38.8739 42.1 39.2906L42.0999 39.2897ZM32.0928 32.2698C31.9046 32.2693 31.7196 32.3187 31.5566 32.4128L27.9815 34.4799C27.7235 34.6159 27.532 34.8512 27.4513 35.1314C27.3703 35.4116 27.4073 35.7127 27.5531 35.9652C27.699 36.2178 27.9416 36.4 28.2248 36.4699C28.5079 36.5397 28.8074 36.4912 29.054 36.3357L32.6291 34.2686C32.9041 34.1104 33.0948 33.8383 33.1501 33.5259C33.2054 33.2133 33.1195 32.8925 32.9155 32.6495C32.7114 32.4064 32.4102 32.2663 32.0928 32.2666L32.0928 32.2698ZM33.0223 28.4054V28.4056C32.8801 28.159 32.646 27.979 32.3709 27.9051C32.096 27.8314 31.8031 27.8699 31.5566 28.0123L27.9784 30.0762C27.7204 30.2122 27.5289 30.4473 27.4479 30.7275C27.3672 31.0079 27.4039 31.309 27.5499 31.5615C27.6959 31.8141 27.9385 31.9963 28.2216 32.0662C28.5048 32.136 28.8043 32.0875 29.0509 31.9317L32.626 29.8647L32.6258 29.8649C32.8718 29.7239 33.052 29.4911 33.127 29.2177C33.2018 28.9443 33.1653 28.6523 33.0257 28.4056L33.0223 28.4054ZM33.7405 23.3971L33.7407 23.3973C33.8352 23.3966 33.923 23.446 33.9713 23.5274C34.7235 24.741 36.0503 25.4786 37.4781 25.4773H37.8032C40.4781 25.2726 42.0704 22.3736 40.9721 19.9294L36.9678 12.9356C36.6865 12.4441 36.1658 12.1385 35.5997 12.1328H17.0161C16.735 12.1328 16.4589 12.2069 16.2159 12.348C15.9728 12.489 15.7711 12.6916 15.6314 12.9356L11.634 19.9196C10.5583 22.3181 12.0629 25.2008 14.6793 25.4575C14.8273 25.4727 14.9758 25.4804 15.1246 25.4801C16.5523 25.4817 17.8792 24.7438 18.6314 23.5303C18.6793 23.4493 18.7663 23.3999 18.8604 23.3999C18.9545 23.3999 19.0415 23.4493 19.0896 23.5303C19.8352 24.7379 21.1498 25.4767 22.569 25.486C23.9884 25.4953 25.3125 24.7735 26.0738 23.5758C26.1221 23.4965 26.2085 23.448 26.3014 23.448C26.3942 23.448 26.4805 23.4965 26.5288 23.5758C27.2896 24.774 28.6133 25.4962 30.0327 25.4876C31.4519 25.4789 32.7667 24.7406 33.5131 23.5334C33.5593 23.4506 33.6459 23.3987 33.7407 23.3969L33.7405 23.3971Z" fill="#FDAB89" fill-opacity="0.4"/>
<path d="M42.0999 39.2897C42.0999 39.7087 41.9335 40.1104 41.6372 40.4067C41.3411 40.7028 40.9392 40.8692 40.5205 40.8692H12.4794C11.9151 40.8692 11.3937 40.5681 11.1117 40.0796C10.8294 39.5908 10.8294 38.9887 11.1117 38.5002C11.3937 38.0114 11.9151 37.7104 12.4794 37.7104H14.3025L14.3027 27.5379L14.4619 27.5574C16.0268 27.7244 17.5971 27.2951 18.8592 26.3549C19.74 27.011 20.778 27.4236 21.8689 27.5507C22.96 27.6779 24.0652 27.5154 25.0731 27.0796V37.7106H35.5381V27.2166C36.1702 27.4098 36.8274 27.5072 37.4882 27.5059C37.6571 27.5059 37.8133 27.5059 37.9951 27.4864C38.2352 27.4673 38.4739 27.4349 38.7101 27.3889V37.7111H40.5335C40.9502 37.7145 41.3485 37.8825 41.6418 38.1784C41.9354 38.4742 42.1 38.8739 42.1 39.2906L42.0999 39.2897ZM32.0928 32.2698C31.9046 32.2693 31.7196 32.3187 31.5566 32.4128L27.9815 34.4799C27.7235 34.6159 27.532 34.8512 27.4513 35.1314C27.3703 35.4116 27.4073 35.7127 27.5531 35.9652C27.699 36.2178 27.9416 36.4 28.2248 36.4699C28.5079 36.5397 28.8074 36.4912 29.054 36.3357L32.6291 34.2686C32.9041 34.1104 33.0948 33.8383 33.1501 33.5259C33.2054 33.2133 33.1195 32.8925 32.9155 32.6495C32.7114 32.4064 32.4102 32.2663 32.0928 32.2666L32.0928 32.2698ZM33.0223 28.4054V28.4056C32.8801 28.159 32.646 27.979 32.3709 27.9051C32.096 27.8314 31.8031 27.8699 31.5566 28.0123L27.9784 30.0762C27.7204 30.2122 27.5289 30.4473 27.4479 30.7275C27.3672 31.0079 27.4039 31.309 27.5499 31.5615C27.6959 31.8141 27.9385 31.9963 28.2216 32.0662C28.5048 32.136 28.8043 32.0875 29.0509 31.9317L32.626 29.8647L32.6258 29.8649C32.8718 29.7239 33.052 29.4911 33.127 29.2177C33.2018 28.9443 33.1653 28.6523 33.0257 28.4056L33.0223 28.4054ZM33.7405 23.3971L33.7407 23.3973C33.8352 23.3966 33.923 23.446 33.9713 23.5274C34.7235 24.741 36.0503 25.4786 37.4781 25.4773H37.8032C40.4781 25.2726 42.0704 22.3736 40.9721 19.9294L36.9678 12.9356C36.6865 12.4441 36.1658 12.1385 35.5997 12.1328H17.0161C16.735 12.1328 16.4589 12.2069 16.2159 12.348C15.9728 12.489 15.7711 12.6916 15.6314 12.9356L11.634 19.9196C10.5583 22.3181 12.0629 25.2008 14.6793 25.4575C14.8273 25.4727 14.9758 25.4804 15.1246 25.4801C16.5523 25.4817 17.8792 24.7438 18.6314 23.5303C18.6793 23.4493 18.7663 23.3999 18.8604 23.3999C18.9545 23.3999 19.0415 23.4493 19.0896 23.5303C19.8352 24.7379 21.1498 25.4767 22.569 25.486C23.9884 25.4953 25.3125 24.7735 26.0738 23.5758C26.1221 23.4965 26.2085 23.448 26.3014 23.448C26.3942 23.448 26.4805 23.4965 26.5288 23.5758C27.2896 24.774 28.6133 25.4962 30.0327 25.4876C31.4519 25.4789 32.7667 24.7406 33.5131 23.5334C33.5593 23.4506 33.6459 23.3987 33.7407 23.3969L33.7405 23.3971Z" fill="#FDB634" fill-opacity="0.3"/>
</svg>
