<svg width="52" height="52" viewBox="0 0 52 52" fill="none" xmlns="http://www.w3.org/2000/svg">
<rect width="52" height="52" rx="26" fill="#053385"/>
<path d="M26 11.5557L12.5397 16.9937L26 22.4317L39.4603 16.9937L26 11.5557ZM11.5556 19.3832V34.904L24.7963 40.4446V24.9245L11.5556 19.3832ZM40.4444 19.3832L27.2037 24.9245V40.4446L40.4444 34.9033V19.3832Z" fill="white"/>
<path d="M26 11.5557L12.5397 16.9937L26 22.4317L39.4603 16.9937L26 11.5557ZM11.5556 19.3832V34.904L24.7963 40.4446V24.9245L11.5556 19.3832ZM40.4444 19.3832L27.2037 24.9245V40.4446L40.4444 34.9033V19.3832Z" fill="#FDAB89" fill-opacity="0.4"/>
<path d="M26 11.5557L12.5397 16.9937L26 22.4317L39.4603 16.9937L26 11.5557ZM11.5556 19.3832V34.904L24.7963 40.4446V24.9245L11.5556 19.3832ZM40.4444 19.3832L27.2037 24.9245V40.4446L40.4444 34.9033V19.3832Z" fill="#FDB634" fill-opacity="0.3"/>
</svg>
