<svg width="101" height="100" viewBox="0 0 101 100" fill="none" xmlns="http://www.w3.org/2000/svg">
<g clip-path="url(#clip0_338_979)">
<path d="M0.000854492 77.5617H3.83183V96.0003H10.4389V99.6388H0.0186741L0.000854492 77.5617Z" fill="#000083"/>
<path d="M19.3125 83.0926C21.3439 83.0676 23.2682 83.9942 24.5155 85.5943V83.4205H28.0899V99.6709H24.5155V97.497C23.2682 99.0971 21.3439 100.024 19.3125 99.9988C14.8544 99.9988 11.4724 96.1892 11.4724 91.5421C11.4724 86.8915 14.8544 83.0926 19.3125 83.0926ZM19.9611 86.3462C17.0674 86.3462 15.1501 88.6234 15.1501 91.5421C15.1501 94.4608 17.0995 96.7451 19.9611 96.7451C22.8228 96.7451 24.7721 94.4679 24.7721 91.5421C24.7721 88.6163 22.8549 86.3462 19.9611 86.3462Z" fill="#000083"/>
<path d="M30.8732 96.8485L39.394 86.667H31.0015V83.4205H44.0125V86.2821L35.5238 96.4244H44.205V99.6709H30.8732V96.8485Z" fill="#000083"/>
<path d="M53.2924 83.0926C55.3237 83.0676 57.2481 83.9942 58.4954 85.5943V83.4205H62.0698V99.6709H58.4954V97.497C57.2481 99.0971 55.3237 100.024 53.2924 99.9988C48.8342 99.9988 45.4594 96.1892 45.4594 91.5421C45.463 86.8915 48.8378 83.0926 53.2924 83.0926ZM53.9446 86.3462C51.0508 86.3462 49.1336 88.6234 49.1336 91.5421C49.1336 94.4608 51.0829 96.7451 53.9446 96.7451C56.8062 96.7451 58.7556 94.4679 58.7556 91.5421C58.7556 88.6163 56.8383 86.3462 53.9446 86.3462Z" fill="#000083"/>
<path d="M72.2834 83.0926C74.3111 83.0676 76.2355 83.9906 77.4792 85.5943V76.2538H81.0536V99.6709H77.4792V97.497C76.2355 99.0971 74.3111 100.024 72.2834 99.9987C67.8252 99.9987 64.4432 96.1891 64.4432 91.5421C64.4432 86.8915 67.8287 83.0926 72.2834 83.0926ZM72.9355 86.3462C70.0418 86.3462 68.1245 88.6234 68.1245 91.5421C68.1245 94.4608 70.081 96.7451 72.9355 96.7451C75.79 96.7451 77.7465 94.4679 77.7465 91.5421C77.7465 88.6163 75.8292 86.3462 72.9355 86.3462Z" fill="#000083"/>
<path d="M91.2672 83.0926C93.2949 83.0676 95.2193 83.9906 96.463 85.5943V83.4205H100.03V99.6709H96.4488V97.4971C95.205 99.0972 93.2806 100.024 91.2529 99.9988C86.7947 99.9988 83.4128 96.1892 83.4128 91.5421C83.4128 86.8915 86.809 83.0926 91.2672 83.0926ZM91.9157 86.3463C89.022 86.3463 87.1048 88.6235 87.1048 91.5421C87.1048 94.4608 89.0612 96.7451 91.9157 96.7451C94.7703 96.7451 96.7267 94.4679 96.7267 91.5421C96.7267 88.6163 94.8095 86.3463 91.9157 86.3463Z" fill="#000083"/>
<path d="M80.9863 0H13.3478V67.6384H80.9863V0Z" fill="url(#paint0_linear_338_979)"/>
<path d="M47.3154 57.5042C46.9268 57.5091 46.548 57.4058 46.2086 57.2188C43.321 55.5463 21.9325 42.1367 21.1209 41.7284C20.506 41.4431 20.0879 40.8528 20.0141 40.1789V21.3631C19.9993 20.6597 20.3436 20.0005 20.9339 19.6168L21.0914 19.5282C23.1623 18.2443 30.0885 14.0188 31.1855 13.4088C31.4364 13.2612 31.7217 13.1776 32.0168 13.1776C32.2923 13.1825 32.5579 13.2514 32.8039 13.3744C32.8039 13.3744 42.4995 19.6906 43.9802 20.2563C45.0182 20.7334 46.1545 20.9745 47.3006 20.9548C48.5993 20.9843 49.8783 20.6695 51.0195 20.0497C52.4707 19.2872 61.7335 13.4088 61.8318 13.4088C62.063 13.2662 62.3336 13.1973 62.6042 13.1973C62.8944 13.1973 63.1846 13.2809 63.4355 13.4285C64.6948 14.127 73.2836 19.3807 73.6477 19.6119C74.2527 19.9759 74.6167 20.6351 74.6118 21.3385V40.1494C74.543 40.8233 74.1248 41.4136 73.505 41.6989C72.6983 42.1416 51.3737 55.5512 48.4321 57.1893C48.0877 57.391 47.7089 57.4992 47.3154 57.5042Z" fill="url(#paint1_linear_338_979)"/>
<path d="M47.2072 57.5042H47.3154C47.704 57.5091 48.0828 57.4058 48.4222 57.214C51.3098 55.5415 72.6884 42.1318 73.4952 41.7235C74.115 41.4382 74.5331 40.8528 74.602 40.174V21.3631C74.6069 21.0434 74.5331 20.7285 74.3905 20.4432L47.2023 35.3729V57.5042" fill="url(#paint2_linear_338_979)"/>
<path d="M47.1117 57.2365H46.9998C46.6153 57.2413 46.2405 57.1391 45.9047 56.9542C43.048 55.2995 21.897 42.0327 21.0989 41.6288C20.4857 41.3465 20.072 40.7674 20.0039 40.0957V21.4804C19.999 21.1641 20.072 20.8526 20.2131 20.5703L47.1117 35.3409V57.2365Z" fill="url(#paint3_linear_338_979)"/>
<path d="M34.0143 27.5148H36.4943V39.4404H40.7631V41.7984H34.0143V27.5148Z" fill="white"/>
<path d="M46.5091 31.0924C47.8236 31.0788 49.0704 31.6751 49.87 32.7051V31.2957H52.1873V41.8119H49.87V40.4025C49.0569 41.4324 47.8236 42.0422 46.5091 42.0151C43.6226 42.0151 41.4407 39.5487 41.4407 36.5402C41.4407 33.5588 43.6226 31.0924 46.5091 31.0924ZM46.9292 33.2065C45.0591 33.2065 43.8123 34.6836 43.8123 36.5673C43.8123 38.451 45.0726 39.9282 46.9292 39.9282C48.7858 39.9282 50.0461 38.451 50.0461 36.5673C50.0461 34.6701 48.7994 33.2065 46.9292 33.2065Z" fill="white"/>
<path d="M53.9897 39.996L59.5053 33.4099H54.0711V31.3093H62.4867V33.1659L56.9983 39.725H62.6087V41.8255H53.9897V39.996Z" fill="white"/>
</g>
<defs>
<linearGradient id="paint0_linear_338_979" x1="46.4879" y1="-57.8133" x2="47.3618" y2="60.1599" gradientUnits="userSpaceOnUse">
<stop offset="0.3379" stop-color="#5B8BEB"/>
<stop offset="0.7794" stop-color="#2742A2"/>
<stop offset="1" stop-color="#112283"/>
</linearGradient>
<linearGradient id="paint1_linear_338_979" x1="20.1546" y1="35.4894" x2="265.741" y2="33.5872" gradientUnits="userSpaceOnUse">
<stop offset="1e-07" stop-color="#FFB900"/>
<stop offset="0.3376" stop-color="#F38000"/>
<stop offset="0.5673" stop-color="#F83C72"/>
<stop offset="0.78" stop-color="#FC1CBE"/>
<stop offset="0.93" stop-color="#FE08ED"/>
<stop offset="1" stop-color="#FF00FF"/>
</linearGradient>
<linearGradient id="paint2_linear_338_979" x1="35.3543" y1="53.1926" x2="285.74" y2="-85.4432" gradientUnits="userSpaceOnUse">
<stop stop-color="#EE0A3F"/>
<stop offset="1" stop-color="#EE0A3F" stop-opacity="0"/>
</linearGradient>
<linearGradient id="paint3_linear_338_979" x1="41.1366" y1="44.1846" x2="160.842" y2="-52.2448" gradientUnits="userSpaceOnUse">
<stop stop-color="#ED6600"/>
<stop offset="1" stop-color="#F98200"/>
</linearGradient>
<clipPath id="clip0_338_979">
<rect width="100.029" height="100" fill="white"/>
</clipPath>
</defs>
</svg>
