<svg width="100" height="100" viewBox="0 0 100 100" fill="none" xmlns="http://www.w3.org/2000/svg">
<path fill-rule="evenodd" clip-rule="evenodd" d="M16.1162 91.3017C15.8993 91.637 15.9979 92.0709 16.3135 92.2879C16.393 92.3429 16.4706 92.3942 16.5451 92.4434C16.711 92.5529 16.8616 92.6524 16.9841 92.7612C18.8381 93.8855 20.5936 94.4378 22.0926 94.4378C23.7099 94.4378 25.0512 93.8066 25.8993 92.5443C25.919 92.5048 25.9584 92.4259 26.0176 92.347C26.2543 91.9723 26.4318 91.5581 26.5502 91.1636C26.8066 90.2958 26.7671 89.3687 26.3924 88.5206C26.0373 87.6922 25.3667 86.923 24.3608 86.3115C23.7494 85.9368 23.0196 85.6015 22.1517 85.3648C20.5541 84.9111 19.3904 84.3194 18.8381 83.5699C18.345 82.919 18.345 82.0709 18.9368 80.9861C19.2721 80.3352 20.0807 79.921 21.1261 79.8421C22.2109 79.7632 23.5324 80.0196 24.9131 80.7297C25.2484 80.9072 25.6823 80.7691 25.8598 80.4141C26.0373 80.0788 25.8993 79.6449 25.5442 79.4674C23.9269 78.639 22.3293 78.3234 21.0078 78.422C19.4693 78.5403 18.2661 79.2109 17.6744 80.2958C16.7869 81.9328 16.846 83.2741 17.6744 84.3983C18.4437 85.4042 19.844 86.1735 21.7573 86.706C22.5068 86.923 23.1379 87.1991 23.631 87.495C24.3805 87.9486 24.8736 88.4812 25.1103 89.0532C25.347 89.5857 25.3667 90.1774 25.2089 90.7494C25.13 91.0255 24.992 91.3017 24.8342 91.5778C24.8342 91.6067 24.813 91.6356 24.7862 91.6722L24.7862 91.6722C24.7764 91.6856 24.7659 91.7 24.7553 91.7159C24.1833 92.564 23.2563 92.9979 22.132 92.9979C20.8894 92.9979 19.3707 92.5048 17.7533 91.5186C17.5166 91.3806 17.2997 91.2425 17.1024 91.1044C16.7671 90.8875 16.3332 90.9861 16.1162 91.3017ZM28.917 79.0927C28.917 78.718 29.2326 78.4221 29.6271 78.4221C30.0216 78.4221 30.3372 78.718 30.3372 79.0927V86.2163C31.128 85.5302 31.9601 85.0752 32.783 84.8324C33.6508 84.576 34.499 84.5562 35.2287 84.7535C35.998 84.9704 36.6686 85.4044 37.142 86.075C37.5956 86.7061 37.852 87.5148 37.852 88.4813V93.7278C37.852 94.1223 37.5364 94.4379 37.142 94.4379C36.7475 94.4379 36.4319 94.1223 36.4319 93.7278V88.4813C36.4319 87.8107 36.2741 87.2781 35.998 86.8837C35.7218 86.5089 35.3471 86.2525 34.8737 86.1144C34.3806 85.9764 33.8086 85.9961 33.1972 86.1736C32.2504 86.4695 31.2642 87.1401 30.3767 88.2249C30.3639 88.2396 30.3507 88.2537 30.3372 88.2672V93.7475C30.3372 94.1223 30.0216 94.4182 29.6271 94.4182C29.2326 94.4182 28.917 94.1223 28.917 93.7475V79.0927ZM44.8145 84.6154C46.1754 84.6154 47.3983 85.1676 48.2859 86.0552C49.1735 86.9428 49.7257 88.1657 49.7257 89.5266C49.7257 90.8876 49.1735 92.1104 48.2859 92.998C47.3983 93.8856 46.1754 94.4379 44.8145 94.4379C43.4535 94.4379 42.2307 93.8856 41.3431 92.998C40.4555 92.1104 39.9032 90.8876 39.9032 89.5266C39.9032 88.1657 40.4555 86.9428 41.3431 86.0552C42.2307 85.1676 43.4733 84.6154 44.8145 84.6154ZM47.2997 87.0414C46.6685 86.4102 45.7809 86.0158 44.8145 86.0158C43.848 86.0158 42.9802 86.4102 42.3293 87.0414C41.6981 87.6726 41.3036 88.5601 41.3036 89.5266C41.3036 90.4931 41.6981 91.3807 42.3293 92.0118C42.9604 92.643 43.848 93.0375 44.8145 93.0375C45.7809 93.0375 46.6488 92.643 47.2997 92.0118C47.9308 91.3807 48.3253 90.4931 48.3253 89.5266C48.3253 88.5601 47.9308 87.6726 47.2997 87.0414ZM52.4476 84.6154C52.0532 84.6154 51.7376 84.931 51.7376 85.3254V99.2899C51.7376 99.6844 52.0532 100 52.4476 100C52.8421 100 53.1577 99.6844 53.1577 99.2899V92.8402C53.1964 92.866 53.2266 92.9002 53.2594 92.9373C53.2768 92.957 53.295 92.9775 53.3155 92.998C54.2031 93.8856 55.4259 94.4379 56.7869 94.4379C58.1478 94.4379 59.3707 93.8856 60.2583 92.998C61.1459 92.1104 61.6981 90.8876 61.6981 89.5266C61.6981 88.1657 61.1459 86.9428 60.2583 86.0552C59.3707 85.1676 58.1478 84.6154 56.7869 84.6154C55.4259 84.6154 54.2031 85.1676 53.3155 86.0552C53.2768 86.081 53.2466 86.1152 53.2138 86.1523C53.1964 86.172 53.1782 86.1925 53.1577 86.213V85.3254C53.1577 84.931 52.8421 84.6154 52.4476 84.6154ZM56.7672 86.0158C57.7336 86.0158 58.6212 86.4102 59.2524 87.0414C59.8835 87.6726 60.278 88.5601 60.278 89.5266C60.278 90.4931 59.8835 91.3807 59.2524 92.0118C58.6015 92.643 57.7336 93.0375 56.7672 93.0375C55.8007 93.0375 54.9131 92.643 54.282 92.0118C53.6508 91.3807 53.2563 90.4931 53.2563 89.5266C53.2563 88.5601 53.6508 87.6726 54.282 87.0414C54.9328 86.4102 55.8007 86.0158 56.7672 86.0158ZM68.3647 84.6154C69.5679 84.6154 70.6724 85.0887 71.4811 85.9171C72.1517 86.5878 72.4279 87.2584 72.6646 87.9684C73.255 89.8922 72.1901 89.8846 71.7966 89.8818L71.7573 89.8816H65.2287C65.2878 90.355 65.4062 90.7889 65.5442 91.1834C65.8006 91.7949 66.1754 92.2485 66.6488 92.5641C67.1419 92.8797 67.773 93.0375 68.5028 93.0375C69.2918 93.0375 70.2188 92.8205 71.2444 92.3866C71.5995 92.2288 72.0137 92.4063 72.1715 92.7613C72.3292 93.1164 72.1517 93.5306 71.7967 93.6884C70.6133 94.1815 69.5087 94.4181 68.5225 94.4379C67.5166 94.4576 66.6291 94.2209 65.8993 93.7475C65.1695 93.2742 64.5383 92.6233 64.2425 91.716C63.5718 89.7239 63.5521 87.7515 65.2484 85.9171C66.0373 85.069 67.1616 84.6154 68.3647 84.6154ZM70.4949 86.9231C69.9229 86.3708 69.1734 86.0355 68.3647 86.0355C67.5561 86.0355 66.8066 86.3708 66.2346 86.9231C65.8204 87.3373 65.4851 87.8501 65.3076 88.4418H71.4417C71.2247 87.8501 70.9091 87.3373 70.4949 86.9231ZM82.2503 85.9171C81.4417 85.0887 80.3371 84.6154 79.134 84.6154C77.9308 84.6154 76.8065 85.069 76.0176 85.9171C74.3213 87.7515 74.3411 89.7239 75.0117 91.716C75.3075 92.6233 75.9387 93.2742 76.6685 93.7475C77.3983 94.2209 78.2858 94.4576 79.2918 94.4379C80.2779 94.4181 81.3825 94.1815 82.5659 93.6884C82.9209 93.5306 83.0985 93.1164 82.9407 92.7613C82.7829 92.4063 82.3687 92.2288 82.0136 92.3866C80.988 92.8205 80.061 93.0375 79.272 93.0375C78.5422 93.0375 77.9111 92.8797 77.418 92.5641C76.9446 92.2485 76.5699 91.7949 76.3134 91.1834C76.1754 90.7889 76.057 90.355 75.9979 89.8816H82.5265C82.5387 89.8816 82.5518 89.8817 82.5658 89.8818C82.9593 89.8846 84.0242 89.8922 83.4338 87.9684C83.1971 87.2584 82.9209 86.5878 82.2503 85.9171ZM79.134 86.0355C79.9426 86.0355 80.6921 86.3708 81.2641 86.9231C81.6783 87.3373 81.9939 87.8501 82.2109 88.4418H76.0768C76.2543 87.8501 76.5896 87.3373 77.0038 86.9231C77.5758 86.3708 78.3253 86.0355 79.134 86.0355Z" fill="#EA501F"/>
<path d="M21.3036 20.4931H36.1557C36.6094 15.4635 38.0098 10.9467 40.0216 7.45562C42.6843 2.84024 46.4713 0 50.7514 0C55.0315 0 58.7987 2.85996 61.4812 7.45562C63.493 10.927 64.8934 15.4635 65.347 20.4931H80.1794C81.9348 20.4931 83.5127 21.9329 83.3747 23.6884L80.3963 65.2465C80.0216 70.4536 76.7474 73.4319 71.994 73.4319H29.5088C24.2228 73.4319 21.422 69.7436 21.1064 65.2465L18.1084 23.7081C17.99 21.9527 19.5482 20.4931 21.3036 20.4931ZM39.8638 20.4931H61.5995C61.1656 16.1341 59.9624 12.2682 58.2464 9.30966C56.2741 5.85799 53.5916 3.70809 50.7514 3.70809C47.8914 3.70809 45.2287 5.85799 43.2169 9.32939C41.5009 12.2682 40.3175 16.1538 39.8638 20.4931Z" fill="#EA501F"/>
<path d="M39.9623 58.856C39.272 58.3827 39.0945 57.4556 39.5679 56.7653C40.0412 56.075 40.9683 55.8975 41.6586 56.3708C42.0925 56.6667 42.5462 56.9625 43.0393 57.2584C46.5107 59.3689 49.7059 60.4142 52.3687 60.4142C54.775 60.4142 56.7276 59.5069 57.9702 57.6726C58.0491 57.5345 58.128 57.4556 58.1478 57.3965C58.5028 56.8245 58.7592 56.213 58.9367 55.6213C59.2917 54.3984 59.2326 53.1361 58.7395 51.9921C58.2069 50.789 57.1813 49.6253 55.5836 48.6588C54.5186 48.0079 53.1971 47.4359 51.5994 47.002C47.5363 45.858 44.5383 44.2407 42.9209 42.071C41.1458 39.6844 41.0077 36.8048 42.9012 33.3136C44.1635 31.0059 46.7474 29.5661 50.0215 29.3097C52.842 29.0927 56.2345 29.7633 59.6862 31.5188C60.4357 31.8935 60.7316 32.8008 60.3371 33.5503C59.9426 34.2998 59.055 34.5957 58.3055 34.2012C55.3667 32.7022 52.5659 32.1302 50.2385 32.3077C48.0097 32.4852 46.3134 33.3531 45.5639 34.7337C44.3016 37.0414 44.3213 38.856 45.347 40.2367C46.5304 41.8343 48.9959 43.0769 52.4278 44.0434C54.2819 44.576 55.8598 45.2466 57.1616 46.0355C59.3115 47.3373 60.7513 48.9744 61.5205 50.7495C62.3095 52.5838 62.4081 54.5168 61.8756 56.4103C61.6389 57.2584 61.2641 58.1065 60.7513 58.9349C60.633 59.1124 60.5541 59.2505 60.4949 59.3491C58.6606 62.0513 55.8401 63.3925 52.4081 63.4123C49.1931 63.4123 45.4456 62.2288 41.5008 59.8225C41.0077 59.5464 40.4949 59.2308 39.9623 58.856Z" fill="white"/>
</svg>
