<svg width="40" height="40" viewBox="0 0 40 40" fill="none" xmlns="http://www.w3.org/2000/svg">
<path d="M0 20C0 8.95431 8.95431 0 20 0V0C31.0457 0 40 8.95431 40 20V20C40 31.0457 31.0457 40 20 40V40C8.95431 40 0 31.0457 0 20V20Z" fill="white" fill-opacity="0.8"/>
<path d="M18.4317 11.7319C18.0316 11.3318 17.3796 11.3431 16.9936 11.7567L16.9546 11.7984C16.5887 12.1905 16.5972 12.8014 16.9738 13.1831L23.0068 19.2977C23.391 19.6871 23.391 20.3129 23.0068 20.7023L16.9738 26.8169C16.5972 27.1986 16.5887 27.8095 16.9546 28.2016L16.9936 28.2433C17.3796 28.6569 18.0316 28.6682 18.4317 28.2681L25.9927 20.7071C26.3832 20.3166 26.3832 19.6834 25.9927 19.2929L18.4317 11.7319Z" fill="#053385"/>
</svg>
